  <svg
        width="390"
        height="280"
        viewBox="0 0 351 252"
        fill="none"
        xmlns="http://www.w3.org/2000/svg">
        <path
            d="M250.69 17.2751C267.96 7.15726 287.963 2.27278 307.85 1.34241C314.304 0.76092 320.817 0.935355 327.213 1.74943C331.4 2.73796 335.703 3.90093 339.018 6.75021C337.331 6.86651 335.703 6.11058 334.017 5.87798C329.249 4.94761 324.306 5.29651 319.48 5.18021C305.466 5.18021 291.336 6.28503 277.787 10.1228C270.693 12.2743 263.599 14.7747 257.144 18.4962C245.98 24.66 235.92 32.8008 227.779 42.5697C213.242 59.2583 204.694 80.4244 200.566 101.998C198.589 113.569 196.321 125.082 194.518 136.712C191.611 137.003 188.645 136.829 185.738 136.829C172.945 136.77 160.153 136.712 147.36 136.596C144.627 136.712 141.952 136.073 139.219 136.247C115.96 136.363 92.7003 136.189 69.4409 136.189L69.9061 136.014C87.1762 134.212 104.504 132.177 121.775 130.49C143.697 130.374 165.56 130.432 187.482 130.49C188.18 130.374 189.401 130.723 189.518 129.734C191.32 120.314 193.065 110.894 194.867 101.474C197.368 88.3908 201.322 75.4818 207.427 63.5613C217.022 44.3723 232.199 28.0907 250.69 17.2751Z"
            fill="#0C0D0D"
            stroke="#0D69B3"
            stroke-width="0.094"
        />
        <path
            d="M277.787 10.1228C291.336 6.285 305.466 5.18018 319.48 5.18018C324.306 5.29647 329.249 4.94757 334.017 5.87795C335.703 6.11054 337.331 6.86647 339.017 6.75018C341.75 8.95982 343.379 12.2161 344.6 15.4725C347.275 23.2062 348.786 31.2307 350.066 39.3134C350.124 42.5697 350.705 46.233 348.961 49.1986C347.333 52.106 344.076 53.5016 340.995 54.3738C329.772 57.2813 318.026 54.5483 306.803 57.2813C297.558 59.2583 288.952 64.3754 283.079 71.7603C276.159 80.3662 272.496 91.0656 270.46 101.765C268.89 111.301 266.913 120.838 265.343 130.432C264.645 132.584 264.238 134.91 263.831 137.177C274.821 137.352 285.812 137.177 296.802 137.294C300.988 137.177 305.175 137.41 309.362 137.119C311.688 142.469 311.164 148.516 310.408 154.157C309.478 160.495 307.966 166.775 305.117 172.59C302.733 177.532 298.779 182.068 293.371 183.813C290.58 184.917 287.556 184.685 284.59 184.685C274.821 184.685 265.053 184.801 255.284 184.685C253.714 191.837 252.667 199.164 251.271 206.432C248.713 220.562 246.212 234.751 243.654 248.939C243.596 249.404 243.538 250.393 243.538 250.916V250.974C218.127 250.974 192.774 251.032 167.363 250.974C167.421 250.741 167.479 250.334 167.537 250.102C167.596 249.811 167.654 249.171 167.712 248.823C167.77 249.288 167.828 250.16 167.886 250.567C169.456 250.741 172.306 251.556 172.713 249.288C176.667 227.889 180.33 206.374 184.4 184.975C182.83 184.627 181.202 184.627 179.574 184.917C179.342 185.731 179.109 186.545 178.818 187.36L179.167 184.743C163.351 184.685 147.476 184.743 131.66 184.685C127.822 184.568 123.868 184.685 120.03 184.22C113.459 183.929 106.83 184.161 100.26 183.522C92.1188 183.522 84.0361 182.766 75.8953 182.766C69.499 182.126 63.0445 182.359 56.59 182.068C52.4033 181.545 48.1003 181.777 43.8555 181.603C36.9358 180.847 29.8998 181.37 22.9801 180.614C15.6534 180.672 8.32672 180.033 1 179.858C1.05815 179.8 1.1163 179.568 1.1163 179.51C3.55854 179.568 5.94263 179.393 8.38486 179.335C13.7927 178.637 19.2586 179.102 24.6665 178.347C30.3069 178.347 35.8891 177.591 41.5295 177.591C46.5303 176.893 51.5892 177.3 56.59 176.602C62.463 176.602 68.2197 175.846 74.0927 175.788C78.919 175.148 83.8035 175.497 88.6299 174.858C94.2703 174.916 99.8525 174.044 105.493 174.102C111.017 173.462 116.657 173.637 122.182 173.055C121.658 170.904 121.251 168.752 120.786 166.601C120.379 165.263 118.751 165.554 117.704 165.379C105.086 163.577 92.5258 161.774 79.9657 160.03C80.7798 159.39 81.8846 159.681 82.815 159.565C92.584 158.809 102.295 157.936 112.064 157.239C114.273 157.122 116.425 156.715 118.635 156.657C117.646 153.633 117.064 150.319 115.727 147.528C94.8517 144.33 73.9764 141.48 53.1592 138.05C58.5671 137.177 64.033 136.77 69.4408 136.189C92.7003 136.189 115.96 136.363 139.219 136.247C141.952 136.073 144.627 136.712 147.36 136.596C160.153 136.712 172.945 136.77 185.738 136.828C188.645 136.828 191.611 137.003 194.518 136.712C196.321 125.082 198.589 113.569 200.566 101.998C204.694 80.4244 213.242 59.2583 227.779 42.5697C235.92 32.8007 245.98 24.6599 257.144 18.4962C263.599 14.7747 270.693 12.2743 277.787 10.1228Z"
            fill="black"
            stroke="#107BD4"
            stroke-width="0.094"
        />
        <path
            d="M265.343 130.432C276.392 130.49 287.498 130.374 298.604 130.49C303.024 130.49 307.559 132.933 309.362 137.119C305.175 137.41 300.988 137.177 296.802 137.294C285.812 137.177 274.822 137.352 263.831 137.177C264.238 134.91 264.646 132.584 265.343 130.432ZM179.574 184.917C181.202 184.627 182.831 184.627 184.401 184.975C180.33 206.374 176.667 227.889 172.713 249.288C172.306 251.556 169.456 250.741 167.886 250.567C167.828 250.16 167.77 249.288 167.712 248.823C171.375 228.354 174.922 207.828 178.818 187.36C179.109 186.545 179.342 185.731 179.574 184.917Z"
            fill="#0C0D0D"
            stroke="#0D69B3"
            stroke-width="0.094"
        />
    </svg>