<svg width="60" height="35" viewBox="0 0 60 35" fill="none" xmlns="http://www.w3.org/2000/svg">
<path d="M60 33.8812C59.1267 34.212 58.1624 34.2113 57.2895 33.8794C56.4166 33.5474 55.6956 32.9072 55.2627 32.0797C52.5438 28.0096 49.5414 24.1231 46.6557 20.1532L45.4044 18.4852C41.9682 23.089 38.532 27.5092 35.3961 32.0965C34.9876 32.8874 34.3056 33.5028 33.4771 33.8281C32.6485 34.1534 31.7299 34.1664 30.8925 33.8647L43.7865 16.567L31.7931 0.937024C32.6564 0.625266 33.6009 0.620967 34.467 0.924855C35.3332 1.22874 36.0679 1.8222 36.5472 2.60502C39.3327 6.67542 42.4188 10.5619 45.4878 14.6821C48.5739 10.5952 51.6264 6.69192 54.4788 2.65512C54.8895 1.87708 55.572 1.2772 56.3962 0.969633C57.2205 0.662069 58.1291 0.668295 58.9491 0.987124L54.2952 7.15902C52.2102 9.91122 50.1585 12.6802 47.9901 15.3658C47.8153 15.5222 47.6754 15.7138 47.5796 15.9279C47.4839 16.142 47.4344 16.374 47.4344 16.6086C47.4344 16.8432 47.4839 17.0751 47.5796 17.2892C47.6754 17.5034 47.8153 17.6949 47.9901 17.8513C51.9768 23.1391 55.9299 28.4434 60 33.8812ZM0 16.3501C0.3504 14.6821 0.567 12.8638 1.0509 11.1625C3.9366 0.904024 15.6963 -3.36648 23.7864 2.98902C28.5237 6.70902 29.7081 11.98 29.4747 17.9182H2.7858C2.352 28.5271 10.0083 34.9324 19.7997 31.663C21.388 31.0948 22.8098 30.14 23.9368 28.8849C25.0639 27.6297 25.8606 26.1136 26.2551 24.4735C26.7723 22.8055 27.6063 22.522 29.1909 23.0056C28.93 25.0363 28.212 26.9815 27.0911 28.6948C25.9701 30.408 24.4753 31.8449 22.719 32.8972C19.8173 34.4842 16.4881 35.1129 13.2075 34.6934C9.92687 34.274 6.86292 32.8279 4.4538 30.562C2.07039 27.8822 0.629276 24.4961 0.3504 20.9206C0.3504 20.3536 0.1335 19.7863 0.0167999 19.2526C0.00576201 18.2852 0.000161997 17.3176 0 16.3501ZM2.8191 15.6328H26.9559C26.8056 7.94322 21.9516 2.48862 15.4797 2.43882C8.2737 2.33862 3.1194 7.67622 2.8023 15.5995L2.8191 15.6328Z" fill="#0F0F0F"/>
</svg>
