<svg width="28" height="28" viewBox="0 0 28 28" fill="none" xmlns="http://www.w3.org/2000/svg">
<path d="M28 14C28 21.732 21.732 28 14 28C6.26801 28 0 21.732 0 14C0 6.26801 6.26801 0 14 0C21.732 0 28 6.26801 28 14ZM5.64997 14C5.64997 18.6116 9.38841 22.35 14 22.35C18.6116 22.35 22.35 18.6116 22.35 14C22.35 9.38841 18.6116 5.64997 14 5.64997C9.38841 5.64997 5.64997 9.38841 5.64997 14Z" fill="black"/>
<path d="M15 15H14.2145C14.2749 14.8046 14.3491 14.6162 14.4382 14.4382C14.5156 14.2835 14.6044 14.1366 14.7053 14C14.7781 13.9013 14.8573 13.808 14.943 13.7208C14.9617 13.7018 14.9807 13.6832 15 13.6648V13.7778V14V15ZM16.0474 14L16.1787 14.3064L16.1767 14.3079L16.0449 14L15.7032 13.2016C15.7037 13.2014 15.7042 13.2012 15.7047 13.201L16.0474 14Z" fill="black" stroke="black" stroke-width="20"/>
</svg>
