<svg width="40" height="40" viewBox="0 0 40 40" fill="none" xmlns="http://www.w3.org/2000/svg">
<circle cx="20" cy="20" r="20" fill="#D9D9D9"/>
<path d="M17.445 7.24209C16.4385 7.97159 15.386 8.6354 14.2941 9.2294V9.42869C14.4049 9.40924 14.5106 9.36783 14.6052 9.3069C14.7414 9.3069 14.8266 9.34786 14.8266 9.48183L15.048 9.36004H15.1588V9.45526C14.4894 10.1132 13.7459 10.6913 12.9434 11.178L13.0652 11.3673H12.9544L12.7231 11.2876C12.7231 11.3562 12.6278 11.3983 12.4119 11.4094V11.5201L12.6544 11.7891C12.5443 11.7864 12.4357 11.7628 12.3344 11.7194C12.0387 11.7819 11.76 11.9074 11.5171 12.0874C11.2743 12.2674 11.0731 12.4976 10.9273 12.7623L11.0491 12.9516C11.2529 12.7318 11.4897 12.545 11.751 12.398L11.7776 12.6936C11.6674 12.7154 11.5621 12.7566 11.4664 12.8154L11.7244 13.1941C12.1954 12.6757 12.736 12.2252 13.3309 11.8555C13.6265 11.9352 13.7737 12.0183 13.7737 12.1246H13.9952C15.4208 11.0349 17.0085 10.1756 18.7005 9.57815V9.78297C18.4049 10.2159 18.2145 10.4318 18.1082 10.4473C18.123 10.5882 18.1742 10.7228 18.2565 10.8381C17.6972 12.6678 16.9938 14.4503 16.153 16.1689C13.7924 21.9947 11.0694 27.667 8 33.1524C8.02036 33.2581 8.06178 33.3587 8.12178 33.448C8.49188 33.3881 8.84638 33.2553 9.16471 33.0572H9.28649V33.262H9.49131L9.71939 33.1048C9.71939 33.1735 9.7991 33.2 9.94081 33.1845V33.3894C9.91278 33.7272 9.79083 34.0505 9.58874 34.3227C9.25715 34.8025 9.01452 35.338 8.87242 35.9037V36H9.07725C9.87799 35.1269 10.5556 34.1483 11.0911 33.0915C13.1338 32.5426 15.1177 31.7947 17.0143 30.8585C18.1402 30.8272 19.2299 30.4542 20.1387 29.789V29.6782L19.6238 29.8266H19.5021V29.7159C20.2364 29.6566 20.9464 29.4253 21.5746 29.0405C23.5354 27.5271 25.0067 26.4587 26.0165 25.821C29.1164 23.5491 30.5745 21.3581 30.3996 19.2767C29.8358 18.3373 29.1484 17.4779 28.3558 16.7214C28.3293 16.4258 28.7987 16.0317 29.7475 15.4892L32.439 13.1199C33.1443 12.0032 33.519 10.7096 33.5195 9.38883L33.4631 8.98583C33.3524 7.78348 32.4888 6.8092 30.8392 6.06631C29.2203 5.26091 27.4163 4.90095 25.6124 5.02338C22.8081 5.39803 20.0658 6.14261 17.4572 7.23766L17.445 7.24209ZM19.8143 15.7471C20.0191 14.64 20.2472 14.0034 20.504 13.855L22.7493 8.81976C22.7227 8.50865 23.1921 8.26619 24.183 8.10344L24.5085 8.07687L24.5351 8.37248C25.5094 8.22412 26.105 8.14108 26.3331 8.11451C28.1045 7.96616 29.0367 8.31933 29.1198 9.19508H29.3246L29.2836 8.68026H29.5051C29.7249 8.767 29.9181 8.91005 30.0652 9.09505C30.2123 9.28005 30.3082 9.5005 30.3432 9.73426C30.3279 10.1308 30.1639 10.5072 29.8837 10.7883C29.7475 10.7883 29.6623 10.7085 29.6523 10.4926H29.4309L29.3777 11.1027C28.4721 12.4556 27.8277 13.1465 27.417 13.1752C27.0516 13.6749 26.8217 13.9333 26.7272 13.9502C26.0228 14.6169 25.2424 15.1984 24.4023 15.6829C22.799 16.1573 21.2378 16.7635 19.7346 17.4953C19.5999 17.4312 19.4496 17.4074 19.3017 17.4267V17.234C19.3141 16.6969 19.4988 16.1779 19.8287 15.7538L19.8143 15.7471ZM12.5072 11.9352V12.0305C12.397 12.0522 12.2917 12.0934 12.1961 12.1522H12.0853V11.9618L12.5072 11.9352ZM19.016 11.7847L19.0426 12.0803C18.9474 12.0803 18.8112 12.2286 18.6518 12.5132V12.3072C18.8021 12.1661 18.9053 11.9821 18.9474 11.7802L19.016 11.7847ZM18.0196 13.8882L18.0606 14.2935H17.9499L17.9177 13.8905L18.0196 13.8882ZM17.7616 14.6201C17.7351 14.9522 17.6509 15.1349 17.466 15.1471H17.3553C17.4585 14.9941 17.5189 14.8164 17.5302 14.6322L17.7616 14.6201ZM17.3188 15.6741V15.7693L17.1295 16.0948H16.9246V16.0051C16.9674 16.0104 17.0108 16.0053 17.0512 15.9903C17.0916 15.9753 17.1278 15.9509 17.1568 15.919C17.1858 15.8871 17.2067 15.8487 17.2177 15.807C17.2287 15.7653 17.2296 15.7217 17.2202 15.6796H17.3177L17.3188 15.6741ZM16.8593 16.6218L16.8062 17.1222H16.6955L16.6545 16.6218H16.8593ZM19.2286 18.1352V18.3245L18.8079 18.3655V18.1762L19.2286 18.1352ZM17.2169 21.0326C19.1964 20.7096 21.1271 20.1375 22.963 19.3298L23.5996 19.2767C24.1187 19.1835 24.6519 19.2031 25.1628 19.3339C25.6738 19.4647 26.1507 19.7039 26.5612 20.0351L26.6021 20.4403C26.1161 21.8475 25.5747 22.6546 24.9946 22.9158L22.2909 25.0659C21.2549 25.8109 20.1664 26.4798 19.0337 27.0676C17.1752 28.2507 15.1637 29.1745 13.0552 29.8133H12.9334C13.0441 29.4347 14.4613 26.514 17.2214 21.0204L17.2169 21.0326ZM20.1364 19.8834V19.9786L19.7036 20.0196V19.9244L20.1364 19.8834ZM13.4017 26.4155C13.2655 27.1053 13.1061 27.4584 12.9688 27.4695V27.3743C12.9607 27.1906 12.9967 27.0076 13.0737 26.8406C13.1508 26.6736 13.2666 26.5275 13.4117 26.4144L13.4017 26.4155ZM16.1054 30.2296C18.3732 29.3328 20.5401 28.1991 22.5699 26.8473V27.0366C22.5699 27.1163 22.2743 27.3688 21.6643 27.8216C20.5459 28.3018 19.4843 28.9049 18.499 29.6196C16.5504 30.2949 15.5905 30.7156 15.606 30.8784C14.442 31.3134 13.3039 31.8146 12.1972 32.3797C12.0036 32.3739 11.8141 32.3231 11.6436 32.2313C11.628 32.0564 11.6647 31.8809 11.7491 31.7269C11.8334 31.573 11.9617 31.4476 12.1174 31.3666C12.4126 31.3367 12.7105 31.3836 12.9821 31.5028C13.5202 31.2638 14.0821 31.0823 14.6583 30.9614V30.7566L14.0217 30.8097C14.6051 30.4528 15.2268 30.1628 15.8751 29.9451L16.2006 29.9185V30.0215C15.6592 30.0624 15.3481 30.2429 15.2794 30.5219C15.2789 30.5492 15.2847 30.5763 15.2964 30.601C15.3081 30.6257 15.3253 30.6474 15.3467 30.6643C15.3682 30.6812 15.3932 30.693 15.42 30.6986C15.4467 30.7043 15.4744 30.7036 15.5009 30.6968C15.7193 30.5729 15.9188 30.4182 16.0932 30.2373L16.1054 30.2296ZM12.7839 27.7718V27.867C12.7904 27.8951 12.7903 27.9243 12.7837 27.9524C12.7771 27.9805 12.7642 28.0067 12.7459 28.029C12.7276 28.0513 12.7045 28.0692 12.6783 28.0812C12.6521 28.0932 12.6235 28.0991 12.5946 28.0984V28.0031C12.5907 27.977 12.592 27.9503 12.5983 27.9246C12.6047 27.8989 12.6161 27.8747 12.6318 27.8535C12.6476 27.8322 12.6673 27.8142 12.69 27.8006C12.7127 27.7869 12.7378 27.7779 12.764 27.774L12.7839 27.7718ZM17.8425 29.1512C17.3279 29.2819 16.8385 29.497 16.3943 29.7878H16.2836V29.583C16.7863 29.5496 17.2592 29.3325 17.6122 28.973C17.6398 28.969 17.668 28.9707 17.695 28.9781C17.7219 28.9855 17.7471 28.9984 17.7688 29.0159C17.7905 29.0335 17.8084 29.0554 17.8213 29.0802C17.8341 29.105 17.8417 29.1322 17.8436 29.1601L17.8425 29.1512ZM12.5824 30.6248L12.9079 30.5983V30.709C12.7972 30.7284 12.6914 30.7698 12.5968 30.8308H12.3931C12.3984 30.7807 12.4197 30.7336 12.4538 30.6965C12.4878 30.6594 12.533 30.6343 12.5824 30.6248Z" fill="black"/>
</svg>
