<svg width="60" height="33" viewBox="0 0 60 33" fill="none" xmlns="http://www.w3.org/2000/svg">
<path d="M2.22313 16.3691L14.3183 21.2703V24.7012L0 18.0672V16.0542L2.22313 16.3691ZM14.3183 12.3434L2.24068 17.3143L0.000240482 17.5596V15.529L14.3181 8.91255L14.3183 12.3434ZM57.497 17.0693L45.0517 12.2208V8.87744L60 15.4939V17.542L57.497 17.0693ZM45.0517 21.3403L57.5321 16.3867L60 16.0191V18.0496L45.0517 24.6836V21.3403Z" fill="#B956A6"/>
<path fill-rule="evenodd" clip-rule="evenodd" d="M41.7976 0.0237749C41.7283 1.12163 41.2337 2.26806 41.3715 3.33539C42.2354 4.86316 44.1368 5.10673 45.7055 5.21156C46.7923 5.40584 46.7786 4.68619 46.7057 3.87783L46.7189 0.000933517C45.0784 0.00694458 43.4374 -0.0151767 41.7976 0.0237749ZM28.8615 3.09423C26.1907 3.5477 23.4833 4.82397 21.2614 6.36039C19.473 7.75232 22.7966 9.1012 24.0024 9.32673C26.4285 9.35631 28.5802 7.71985 30.1739 6.02137C30.6942 5.30726 31.3441 4.21396 30.6903 3.38612C30.1912 2.95333 29.4653 3.05816 28.8615 3.09423ZM34.5449 6.97881C32.3489 7.39718 30.2595 8.30221 28.4107 9.56236C27.0553 9.98795 25.9382 11.476 27.6177 12.2217C29.3814 13.627 31.4254 13.2827 33.0495 12.3339C34.5369 11.4498 36.1436 10.359 36.8317 8.69461C37.4816 6.87133 35.8048 6.80377 34.5449 6.97881ZM40.7745 14.0437C40.3655 15.7518 38.6454 16.5285 37.7302 17.8819C36.982 18.8692 37.3285 20.0322 38.1803 20.8093C38.5951 21.6694 39.3222 22.15 40.102 21.4029C42.1101 20.0377 42.6656 17.3784 42.5821 15.0743C42.7305 14.1226 41.6386 14.9829 40.7745 14.0437ZM33.1325 17.252C30.4658 17.7083 27.7985 19.0077 25.5756 20.5417C23.85 21.9317 27.1 23.2296 28.3157 23.4354C30.7867 23.439 32.9909 21.8466 34.5533 20.038C35.0967 19.3198 35.7552 17.925 34.6793 17.3539C34.1981 17.15 33.6396 17.2099 33.1325 17.252Z" fill="#B956A6"/>
<path fill-rule="evenodd" clip-rule="evenodd" d="M21.2614 6.36057C19.2104 7.1812 17.232 8.17759 15.2782 9.22111C14.9151 10.5712 15.2063 12.243 15.1123 13.7234C15.1051 19.8104 15.1084 25.8977 15.1075 31.9848H19.6326C20.5463 31.1245 21.6908 30.4947 22.6833 29.7135C26.5049 26.9727 30.3253 24.2214 34.1419 21.4882C34.4227 21.6145 34.2428 19.8362 33.6268 21.0713C32.1671 22.445 30.2296 23.5748 28.1789 23.4644C27.0151 23.0817 25.1392 22.4322 25.1274 21.0062C25.9466 20.0417 23.616 21.5111 22.9784 21.7215C20.9053 22.7169 18.8812 23.8285 16.8038 24.8054C17.303 24.2692 18.2368 23.7693 18.899 23.2375C23.6292 19.8419 28.3583 16.4332 33.0998 13.0403C34.0118 12.4 34.8928 11.7015 35.8329 11.1031C35.9187 11.4346 36.0798 9.51782 35.3806 10.6979C33.9553 12.1107 32.0327 13.1624 30.005 13.1769C28.8646 12.8306 26.4357 12.0028 26.9764 10.5303C27.2402 10.0136 24.5268 11.6318 25.7257 10.7193C27.0017 9.78687 28.2878 8.87103 29.5737 7.94821C30.2231 7.8994 30.0849 5.48704 29.2024 7.04318C27.7201 8.34566 25.7725 9.53729 23.7309 9.25477C22.584 8.92465 21.208 8.28531 20.7911 7.08598C20.653 6.79793 21.5634 6.34903 21.2614 6.36057ZM29.7584 7.84963C29.9644 7.73085 29.6446 8.17495 29.7584 7.84963Z" fill="#FCCC44"/>
<path fill-rule="evenodd" clip-rule="evenodd" d="M42.7165 4.74884C42.0762 7.8063 41.3763 11.0063 40.7745 14.0436C42.5037 16.223 42.6713 12.6668 42.9738 11.6613C43.4626 9.55961 44.0416 7.97269 44.1029 5.79669C44.2328 5.05396 43.36 4.60433 42.7165 4.74884ZM44.7004 7.14629C44.7793 7.2052 44.6463 7.45959 44.7004 7.14629ZM42.6831 14.0023C42.7663 14.1814 42.7663 13.8229 42.6831 14.0023Z" fill="#62777F"/>
<path fill-rule="evenodd" clip-rule="evenodd" d="M43.8507 5.09498C44.3902 8.12504 42.603 11.8062 42.0185 14.6631C43.3457 13.6865 44.3712 9.25511 44.6333 7.52056C44.7009 7.3222 44.7841 6.82304 44.8021 6.80501C44.8855 6.38399 45.6629 5.6706 45.7054 5.2116C46.1579 4.89229 43.4813 4.84107 43.8507 5.09498ZM42.7502 14.0022C42.6667 14.1813 42.6667 13.8228 42.7502 14.0022Z" fill="#4E5E67"/>
<path fill-rule="evenodd" clip-rule="evenodd" d="M21.3063 6.41075C20.5581 7.15997 20.8389 6.97699 21.3958 6.354L21.3063 6.41075ZM29.3996 6.78175C28.5328 8.08423 25.4071 9.17343 25.0135 9.25783C26.8937 8.90558 28.6463 7.73583 29.8796 6.36578C29.6836 6.45307 29.5672 6.65816 29.3996 6.78175ZM20.7923 7.20469C21.2595 8.32803 22.9582 9.07437 23.7836 9.24845C22.6567 8.88538 21.3301 8.24148 20.7923 7.20469ZM29.6911 7.85436C29.4552 8.1328 28.6151 8.54924 28.1722 8.958C27.2222 9.65864 26.2395 10.3098 25.3003 11.028C25.8983 11.0022 27.6507 9.69327 26.7524 11.0215C27.5136 12.3316 29.171 13.2427 30.6822 13.1595C32.6778 12.8462 34.5182 11.7428 35.8411 10.2083C34.2352 11.7974 32.1121 13.2929 29.7627 13.0869C28.6257 12.8243 25.5187 11.2194 27.597 10.0943C28.3299 9.49154 29.5934 9.17584 29.7365 8.11645C29.7064 7.9842 29.9529 7.85509 29.6911 7.85436ZM24.0024 9.32659C24.7586 9.42541 24.7586 9.22801 24.0024 9.32659ZM35.7848 11.1359C32.7843 13.2263 29.8274 15.3985 26.8529 17.5264C23.4819 19.939 20.1253 22.3605 16.7552 24.7712C18.0224 24.3439 19.2919 23.5096 20.5506 22.9332C22.2842 22.0162 24.1121 21.2917 25.7341 20.1778C28.9411 18.2898 32.3328 16.4911 34.7995 13.6026C35.3378 12.9712 35.8776 11.9549 35.9017 11.2713C35.824 11.2932 35.8829 10.9979 35.7848 11.1359ZM25.5756 20.5413C25.0358 21.1513 24.8166 21.5872 25.3768 20.8116C25.3669 20.9015 25.8315 20.33 25.5756 20.5413ZM33.7882 20.8332C32.3662 22.3326 30.2631 23.4141 28.2898 23.487C30.5711 23.5036 32.6293 22.1494 34.1748 20.5519C34.0734 20.4293 33.8678 20.8375 33.7882 20.8332ZM34.2227 21.3045C29.4453 24.7822 24.503 28.3896 19.7096 31.8548C20.4646 32.0917 22.1089 32.2028 22.8594 31.2359C24.4559 30.1342 26.2508 29.3242 27.8526 28.2076C30.1722 26.7024 32.6557 25.0573 33.9731 22.5276C34.0358 22.1883 34.5021 21.5781 34.2227 21.3045ZM25.1308 21.5252C25.3525 22.461 28.1238 23.5351 27.8233 23.3295C26.8014 22.9712 25.7877 22.4129 25.1308 21.5252Z" fill="#DC9624"/>
</svg>
