<svg width="302" height="216" viewBox="0 0 302 216" fill="none" xmlns="http://www.w3.org/2000/svg">
<path d="M215.507 14.9819C230.344 6.28967 247.529 2.09344 264.613 1.29416C270.158 0.794607 275.753 0.944464 281.248 1.64383C284.845 2.49307 288.542 3.49218 291.389 5.93998C289.94 6.03989 288.542 5.39047 287.093 5.19065C282.997 4.39137 278.751 4.69111 274.604 4.5912C262.565 4.5912 250.426 5.54034 238.786 8.83738C232.692 10.6857 226.597 12.8338 221.052 16.0309C211.461 21.3262 202.819 28.3199 195.825 36.7123C183.336 51.0494 175.993 69.2331 172.446 87.7664C170.748 97.7075 168.799 107.599 167.251 117.59C164.753 117.839 162.205 117.69 159.708 117.69C148.717 117.64 137.727 117.59 126.737 117.49C124.389 117.59 122.091 117.04 119.743 117.19C99.7614 117.29 79.7794 117.14 59.7974 117.14L60.197 116.99C75.0337 115.442 89.9203 113.693 104.757 112.244C123.59 112.145 142.373 112.194 161.206 112.244C161.806 112.145 162.855 112.444 162.955 111.595C164.503 103.502 166.002 95.4096 167.551 87.3168C169.699 76.0769 173.096 64.9869 178.341 54.7461C186.583 38.2609 199.622 24.2735 215.507 14.9819Z" fill="#0C0D0D" stroke="#0D69B3" stroke-width="0.094"/>
<path d="M238.786 8.83749C250.426 5.54046 262.565 4.59131 274.604 4.59131C278.75 4.69122 282.997 4.39148 287.093 5.19076C288.542 5.39058 289.94 6.04 291.389 5.94009C293.737 7.83838 295.136 10.6359 296.185 13.4334C298.483 20.0774 299.781 26.9712 300.88 33.9149C300.93 36.7124 301.43 39.8596 299.931 42.4073C298.533 44.9051 295.735 46.104 293.087 46.8533C283.446 49.3511 273.355 47.0032 263.714 49.3511C255.771 51.0495 248.378 55.4456 243.332 61.7899C237.388 69.1832 234.24 78.375 232.492 87.5667C231.143 95.7593 229.445 103.952 228.096 112.195C227.496 114.043 227.147 116.041 226.797 117.989C236.239 118.139 245.68 117.989 255.122 118.089C258.718 117.989 262.315 118.189 265.912 117.939C267.91 122.535 267.46 127.731 266.811 132.576C266.012 138.021 264.713 143.417 262.265 148.412C260.217 152.658 256.82 156.555 252.174 158.053C249.776 159.003 247.179 158.803 244.631 158.803C236.239 158.803 227.846 158.903 219.454 158.803C218.105 164.947 217.206 171.241 216.007 177.486C213.809 189.625 211.661 201.814 209.463 214.003C209.413 214.403 209.363 215.252 209.363 215.702V215.752C187.532 215.752 165.752 215.801 143.922 215.752C143.971 215.552 144.021 215.202 144.071 215.002C144.121 214.752 144.171 214.203 144.221 213.903C144.271 214.303 144.321 215.052 144.371 215.402C145.72 215.552 148.168 216.251 148.517 214.303C151.914 195.919 155.062 177.436 158.558 159.052C157.21 158.753 155.811 158.753 154.412 159.003C154.212 159.702 154.012 160.401 153.763 161.101L154.062 158.853C140.475 158.803 126.837 158.853 113.249 158.803C109.952 158.703 106.555 158.803 103.258 158.403C97.6132 158.153 91.9183 158.353 86.2734 157.804C79.2796 157.804 72.3359 157.154 65.3422 157.154C59.8471 156.605 54.3021 156.804 48.7571 156.555C45.1603 156.105 41.4636 156.305 37.8169 156.155C31.8723 155.506 25.8277 155.955 19.883 155.306C13.5887 155.356 7.29434 154.806 1 154.656C1.04996 154.606 1.09991 154.407 1.09991 154.357C3.19802 154.407 5.24618 154.257 7.3443 154.207C11.9901 153.607 16.6859 154.007 21.3317 153.358C26.1774 153.358 30.9731 152.708 35.8187 152.708C40.1148 152.109 44.4609 152.458 48.7571 151.859C53.8025 151.859 58.7481 151.209 63.7936 151.16C67.9398 150.61 72.1361 150.91 76.2823 150.36C81.128 150.41 85.9237 149.661 90.7693 149.711C95.515 149.161 100.361 149.311 105.106 148.812C104.657 146.963 104.307 145.115 103.907 143.267C103.558 142.118 102.159 142.367 101.26 142.218C90.4196 140.669 79.6293 139.12 68.839 137.622C69.5384 137.072 70.4875 137.322 71.2868 137.222C79.6793 136.573 88.0218 135.823 96.4142 135.224C98.3125 135.124 100.161 134.774 102.059 134.724C101.21 132.127 100.71 129.279 99.5614 126.881C81.6275 124.134 63.6937 121.686 45.8097 118.739C50.4556 117.989 55.1513 117.64 59.7972 117.14C79.7792 117.14 99.7612 117.29 119.743 117.19C122.091 117.04 124.389 117.59 126.737 117.49C137.727 117.59 148.717 117.64 159.707 117.69C162.205 117.69 164.753 117.84 167.251 117.59C168.799 107.599 170.747 97.7076 172.446 87.7665C175.993 69.2332 183.336 51.0495 195.825 36.7124C202.819 28.32 211.461 21.3263 221.052 16.031C226.597 12.8339 232.692 10.6858 238.786 8.83749Z" fill="black" stroke="#107BD4" stroke-width="0.094"/>
<path d="M228.096 112.194C237.587 112.244 247.129 112.144 256.67 112.244C260.467 112.244 264.363 114.342 265.912 117.939C262.315 118.189 258.718 117.989 255.122 118.089C245.68 117.989 236.238 118.139 226.797 117.989C227.147 116.041 227.496 114.043 228.096 112.194ZM154.412 159.002C155.811 158.752 157.21 158.752 158.558 159.052C155.061 177.436 151.914 195.919 148.517 214.303C148.168 216.251 145.72 215.551 144.371 215.402C144.321 215.052 144.271 214.303 144.221 213.903C147.368 196.319 150.416 178.685 153.763 161.1C154.012 160.401 154.212 159.702 154.412 159.002Z" fill="#0C0D0D" stroke="#0D69B3" stroke-width="0.094"/>
</svg>
