<svg width="62" height="55" viewBox="0 0 62 55" fill="none" xmlns="http://www.w3.org/2000/svg">
<path d="M50.332 18.3025C49.6934 18.0834 49.0495 17.8804 48.4007 17.6938C48.5097 17.2485 48.61 16.8086 48.6991 16.3764C50.1611 9.27926 49.2053 3.56168 45.9407 1.67918C42.8106 -0.12551 37.6916 1.75629 32.5218 6.25558C32.0123 6.6998 31.5141 7.15682 31.0277 7.62621C30.702 7.31408 30.3706 7.00802 30.0337 6.70816C24.6154 1.89738 19.1845 -0.130197 15.9234 1.75769C12.7961 3.56801 11.8701 8.94293 13.1863 15.669C13.3173 16.3352 13.4651 16.9979 13.6298 17.6565C12.861 17.875 12.1192 18.1075 11.4093 18.355C5.0568 20.5698 1 24.0407 1 27.6409C1 31.3593 5.35516 35.0889 11.9716 37.3504C12.508 37.5329 13.0488 37.7021 13.5937 37.8578C13.4167 38.5672 13.2596 39.2813 13.1226 39.9995C11.8677 46.6089 12.8477 51.8568 15.9665 53.6556C19.1877 55.5132 24.5943 53.604 29.8586 49.0021C30.2855 48.6279 30.7029 48.2432 31.1106 47.8482C31.6374 48.3565 32.1782 48.85 32.7325 49.3281C37.832 53.7161 42.8683 55.4879 45.9841 53.6842C49.2023 51.8211 50.2483 46.1835 48.8903 39.3245C48.7833 38.7871 48.6634 38.2525 48.5305 37.7209C48.9102 37.6084 49.2829 37.4926 49.6462 37.3722C56.5246 35.0933 61 31.4089 61 27.6409C61 24.0275 56.8122 20.5332 50.332 18.3025ZM48.8402 34.9393C48.512 35.0479 48.1755 35.1526 47.8323 35.2546C47.073 32.8506 46.0483 30.2945 44.7941 27.6533C45.9909 25.0752 46.9762 22.5517 47.7142 20.1634C48.328 20.3411 48.9236 20.5283 49.4978 20.7259C55.0502 22.6375 58.4369 25.4633 58.4369 27.6409C58.4369 29.9603 54.7792 32.9713 48.8402 34.9393ZM46.3759 39.8223C46.9764 42.8551 47.062 45.5973 46.6642 47.7411C46.307 49.6675 45.5884 50.9516 44.6997 51.4661C42.809 52.5606 38.7653 51.1379 34.4043 47.3851C33.8888 46.9406 33.3857 46.4818 32.8956 46.0093C34.5864 44.1604 36.276 42.0109 37.9251 39.6236C40.8257 39.3662 43.566 38.9453 46.0511 38.3708C46.1708 38.852 46.2791 39.336 46.3759 39.8223ZM21.4553 51.2769C19.608 51.9292 18.1366 51.9479 17.2471 51.4351C15.3545 50.3436 14.5677 46.1298 15.6409 40.4776C15.7685 39.8097 15.9146 39.1455 16.079 38.4857C18.5366 39.0294 21.257 39.4204 24.1645 39.6561C25.8248 41.9921 27.5631 44.1393 29.3151 46.0194C28.9428 46.3797 28.5616 46.7307 28.172 47.0722C25.844 49.1071 23.5113 50.5508 21.4553 51.2769ZM12.8008 34.925C9.87508 33.925 7.45891 32.6254 5.80281 31.2071C4.31453 29.9329 3.56336 28.6675 3.56336 27.6409C3.56336 25.4561 6.82047 22.6693 12.253 20.7754C12.9123 20.5457 13.6023 20.3289 14.3184 20.1254C15.0693 22.5676 16.0541 25.1211 17.2427 27.7032C16.0387 30.3236 15.0398 32.9179 14.2816 35.3889C13.7842 35.2464 13.2905 35.0918 12.8008 34.925ZM15.7019 15.1766C14.5743 9.41402 15.3231 5.06707 17.2077 3.97605C19.2149 2.81402 23.6535 4.47082 28.3319 8.62488C28.6369 8.89638 28.9371 9.17337 29.2321 9.45574C27.4888 11.3277 25.7664 13.4589 24.1209 15.7811C21.299 16.0426 18.5978 16.4626 16.1144 17.0253C15.9614 16.4127 15.8238 15.7961 15.7019 15.1766ZM41.5832 21.5678C40.9966 20.5545 40.3883 19.5541 39.7586 18.5671C41.673 18.8092 43.5072 19.1305 45.2296 19.5233C44.7126 21.1808 44.068 22.9136 43.3094 24.6901C42.7548 23.6379 42.1793 22.597 41.5832 21.5678ZM31.0288 11.2879C32.211 12.5687 33.3951 13.9986 34.5597 15.5502C32.1972 15.4386 29.8307 15.4381 27.4682 15.5488C28.634 14.0115 29.8281 12.5835 31.0288 11.2879ZM20.4067 21.5851C19.818 22.606 19.2533 23.6405 18.7129 24.6878C17.9666 22.9175 17.328 21.1768 16.8065 19.4959C18.5184 19.1129 20.3439 18.7998 22.2461 18.5621C21.6094 19.5552 20.9961 20.5633 20.4067 21.5851ZM22.3007 36.902C20.3355 36.6826 18.4825 36.3857 16.7711 36.013C17.3008 34.3021 17.9535 32.5243 18.7159 30.7161C19.2585 31.7642 19.8256 32.7993 20.4168 33.8207C21.0248 34.8707 21.6543 35.8991 22.3007 36.902ZM31.0996 44.1746C29.8846 42.864 28.6729 41.4139 27.4895 39.8544C28.6384 39.8994 29.8096 39.9224 31 39.9224C32.223 39.9224 33.4319 39.895 34.6218 39.842C33.4534 41.4296 32.2738 42.8818 31.0996 44.1746ZM43.3335 30.6238C44.1355 32.4519 44.8115 34.2203 45.3482 35.9019C43.6087 36.2989 41.7304 36.6186 39.7513 36.8561C40.3855 35.8507 40.9996 34.8329 41.5933 33.8031C42.1969 32.7564 42.7771 31.6963 43.3335 30.6238ZM39.373 32.5225C38.4642 34.1013 37.5042 35.6502 36.4947 37.1666C34.666 37.2961 32.8333 37.3605 31 37.3595C29.1327 37.3595 27.3166 37.3014 25.5677 37.1879C24.5318 35.675 23.5535 34.1234 22.6349 32.5365C21.7207 30.958 20.8669 29.3454 20.0751 27.7021C20.8649 26.0584 21.7163 24.445 22.6274 22.8653C23.5382 21.2852 24.5084 19.7405 25.5365 18.234C27.3208 18.099 29.1505 18.0287 30.9998 18.0287C32.8574 18.0287 34.6898 18.0997 36.4736 18.2357C37.4913 19.7398 38.4555 21.2795 39.3646 22.8517C40.2788 24.4279 41.1414 26.0334 41.9512 27.6657C41.1497 29.3147 40.2898 30.9347 39.373 32.5225ZM44.6605 3.89965C46.6696 5.0584 47.451 9.73113 46.1887 15.8589C46.108 16.2498 46.0176 16.648 45.9191 17.0518C43.4296 16.4771 40.7266 16.0499 37.8965 15.7843C36.2479 13.4366 34.5395 11.3021 32.8246 9.45433C33.2741 9.02109 33.7342 8.59909 34.2046 8.18871C38.6343 4.33394 42.7743 2.81191 44.6605 3.89965ZM31 22.2831C33.959 22.2831 36.3578 24.6819 36.3578 27.6409C36.3578 30.5999 33.959 32.9987 31 32.9987C28.041 32.9987 25.6422 30.5999 25.6422 27.6409C25.6422 24.6819 28.041 22.2831 31 22.2831Z" fill="#3760A9" stroke="#3760A9"/>
</svg>
