<svg width="421" height="302" viewBox="0 0 421 302" fill="none" xmlns="http://www.w3.org/2000/svg">
<path d="M300.628 20.5301C321.352 8.38871 345.356 2.52734 369.22 1.41089C376.966 0.713104 384.781 0.922426 392.456 1.89932C397.48 3.08555 402.644 4.48112 406.621 7.90025C404.598 8.03981 402.644 7.13269 400.62 6.85358C394.899 5.73713 388.967 6.15581 383.176 6.01626C366.359 6.01626 349.403 7.34204 333.145 11.9474C324.632 14.5292 316.119 17.5297 308.374 21.9955C294.976 29.392 282.905 39.1609 273.136 50.8837C255.691 70.91 245.434 96.3093 240.479 122.197C238.107 136.083 235.386 149.899 233.222 163.855C229.733 164.204 226.175 163.994 222.686 163.994C207.335 163.924 191.983 163.855 176.632 163.715C173.353 163.855 170.143 163.087 166.863 163.296C138.952 163.436 111.041 163.227 83.1294 163.227L83.6876 163.017C104.412 160.854 125.206 158.412 145.93 156.388C172.236 156.249 198.473 156.319 224.779 156.388C225.617 156.249 227.082 156.667 227.221 155.481C229.385 144.177 231.478 132.873 233.641 121.569C236.642 105.869 241.386 90.3782 248.713 76.0736C260.227 53.0468 278.439 33.5089 300.628 20.5301Z" fill="#0C0D0D" stroke="#0D69B3" stroke-width="0.094"/>
<path d="M333.144 11.9478C349.403 7.34239 366.359 6.0166 383.175 6.0166C388.967 6.15616 394.898 5.73748 400.62 6.85393C402.644 7.13304 404.597 8.04016 406.621 7.9006C409.901 10.5522 411.854 14.4598 413.32 18.3673C416.529 27.6478 418.344 37.2772 419.879 46.9764C419.949 50.884 420.646 55.28 418.553 58.8387C416.599 62.3276 412.692 64.0023 408.993 65.049C395.526 68.5379 381.431 65.2583 367.964 68.5379C356.869 70.9104 346.542 77.0509 339.494 85.9127C331.191 96.2399 326.795 109.079 324.352 121.918C322.468 133.362 320.096 144.806 318.212 156.319C317.375 158.901 316.886 161.692 316.398 164.413C329.586 164.623 342.774 164.413 355.962 164.553C360.986 164.413 366.01 164.692 371.034 164.343C373.825 170.763 373.197 178.02 372.29 184.788C371.174 192.394 369.359 199.93 365.94 206.908C363.079 212.839 358.334 218.282 351.845 220.375C348.496 221.701 344.867 221.422 341.309 221.422C329.586 221.422 317.863 221.562 306.14 221.422C304.256 230.005 303 238.797 301.326 247.519C298.255 264.475 295.255 281.501 292.185 298.527C292.115 299.085 292.045 300.271 292.045 300.899V300.969C261.552 300.969 231.129 301.039 200.636 300.969C200.705 300.69 200.775 300.202 200.845 299.923C200.915 299.574 200.984 298.806 201.054 298.387C201.124 298.946 201.194 299.992 201.264 300.481C203.148 300.69 206.567 301.667 207.055 298.946C211.8 273.267 216.196 247.449 221.081 221.771C219.197 221.352 217.243 221.352 215.289 221.701C215.01 222.678 214.731 223.655 214.382 224.632L214.801 221.492C195.821 221.422 176.771 221.492 157.792 221.422C153.186 221.283 148.441 221.422 143.836 220.864C135.951 220.515 127.996 220.794 120.111 220.027C110.343 220.027 100.643 219.119 90.8744 219.119C83.1988 218.352 75.4534 218.631 67.708 218.282C62.684 217.654 57.5204 217.933 52.4266 217.724C44.123 216.817 35.6798 217.445 27.3762 216.538C18.5841 216.607 9.79206 215.84 1 215.63C1.06978 215.561 1.13956 215.282 1.13956 215.212C4.07024 215.282 6.93115 215.072 9.86184 215.002C16.3512 214.165 22.9104 214.723 29.3997 213.816C36.1682 213.816 42.8669 212.909 49.6354 212.909C55.6364 212.072 61.7071 212.56 67.708 211.723C74.7556 211.723 81.6637 210.816 88.7113 210.746C94.5029 209.978 100.364 210.397 106.156 209.63C112.924 209.699 119.623 208.653 126.392 208.722C133.02 207.955 139.789 208.164 146.418 207.466C145.79 204.885 145.301 202.303 144.743 199.721C144.255 198.116 142.301 198.465 141.045 198.256C125.903 196.093 110.831 193.929 95.7589 191.836C96.7358 191.069 98.0615 191.417 99.178 191.278C110.901 190.371 122.554 189.324 134.276 188.487C136.928 188.347 139.51 187.859 142.161 187.789C140.975 184.16 140.277 180.183 138.672 176.834C113.622 172.996 88.5717 169.577 63.5911 165.46C70.0805 164.413 76.6396 163.925 83.129 163.227C111.04 163.227 138.952 163.436 166.863 163.297C170.142 163.087 173.352 163.855 176.632 163.715C191.983 163.855 207.334 163.925 222.685 163.995C226.174 163.995 229.733 164.204 233.222 163.855C235.385 149.899 238.106 136.083 240.479 122.197C245.433 96.3097 255.691 70.9104 273.135 50.884C282.904 39.1613 294.976 29.3923 308.373 21.9958C316.119 17.53 324.632 14.5295 333.144 11.9478Z" fill="black" stroke="#107BD4" stroke-width="0.094"/>
<path d="M318.212 156.318C331.47 156.388 344.797 156.249 358.125 156.388C363.428 156.388 368.871 159.319 371.034 164.343C366.01 164.692 360.986 164.413 355.962 164.552C342.774 164.413 329.586 164.622 316.398 164.413C316.886 161.691 317.375 158.9 318.212 156.318ZM215.289 221.701C217.243 221.352 219.197 221.352 221.081 221.77C216.196 247.449 211.8 273.267 207.055 298.945C206.567 301.666 203.148 300.69 201.264 300.48C201.194 299.992 201.124 298.945 201.054 298.387C205.45 273.825 209.707 249.193 214.382 224.631C214.731 223.654 215.01 222.677 215.289 221.701Z" fill="#0C0D0D" stroke="#0D69B3" stroke-width="0.094"/>
</svg>
