<svg width="174" height="162" viewBox="0 0 174 162" fill="none" xmlns="http://www.w3.org/2000/svg">
<path d="M39.8934 35L32.3934 37L24.3934 39.5L19.8934 42L14.8934 45.5L11.3934 49L8.89343 52.5L7.39343 55.5L6.39343 60L5.89343 63.5V66.5L6.39343 69L7.39343 72.5L9.39343 78L11.8934 83.5L14.1434 87L16.3934 90.5L23.8934 101L29.8934 111.5L31.8934 116.5L32.8934 119.5L33.8934 122.5L34.8934 128L35.3934 131.5L36.3934 136.5L38.8934 141.5L41.3934 144L44.3934 146L48.8934 147.5L53.3934 148H57.3934L64.3934 147L71.3934 146L80.8934 144.5L88.8934 144.065L93.8934 144.5L97.3934 145L99.8934 145.5L118.893 153L123.893 155L127.393 155.5H129.893L131.893 155L134.893 153.5L136.893 151.5L140.893 143.5L143.393 136.5L144.893 132L146.393 127L151.893 117L158.893 107L164.893 98.5L168.393 93.5L169.893 90.5L170.393 88.5L170.893 85.5V83L169.893 79L167.893 75.5L165.893 73L159.393 65.5L150.893 56.5L137.893 41.5L135.893 37.5L133.393 31.5L132.893 27.5L132.393 23.5L131.893 22L131.393 21L127.393 15.5L125.393 13L122.893 10.5L120.393 8.5L118.893 7.5L110.047 3.5683L99.8934 3L92.8934 3.5L87.8934 5L80.8934 8L74.3934 12.5L66.8934 18.5L59.8934 25L52.8934 30L47.3934 32.5L39.8934 35Z" stroke="#EEFE6E" stroke-width="5"/>
<path d="M16.8806 73.7462L12.1929 79.9332L7.4179 86.8212L5.4041 91.5592L3.6103 97.3922L3 102.304L3.1785 106.602L3.8387 109.89L5.8151 114.055L7.5714 117.123L9.4149 119.49L11.3457 121.155L14.2854 123.302L19.243 126.412L24.5951 129.214L28.5209 130.593L32.4467 131.972L44.8159 135.646L56.0018 140.243L60.6521 142.958L63.2846 144.71L65.917 146.463L70.0857 150.187L72.6314 152.641L76.4924 155.971L81.5374 158.379L85.0454 158.815L88.6414 158.55L93.1134 156.968L96.9704 154.597L100.126 152.139L105.034 147.048L109.942 141.958L116.515 134.936L122.559 129.677L126.77 126.948L129.839 125.191L132.118 124.05L151.716 118.291L156.89 116.796L159.958 115.04L161.931 113.503L163.201 111.88L164.646 108.853L164.995 106.046L163.234 97.2772L160.905 90.2182L159.323 85.7462L157.434 80.8802L155.628 69.6112L155.005 57.4207L154.515 47.0279L154.204 40.9326L153.544 37.6441L152.709 35.759L151.26 33.0851L149.724 31.1128L146.477 28.5717L142.748 27.0395L139.634 26.2963L129.897 24.3738L117.661 22.497L98.1874 18.652L94.1524 16.7254L88.4924 13.5283L85.6404 10.6799L82.7874 7.83147L81.4714 6.95537L80.4624 6.47377L73.9274 4.59277L70.8134 3.84957L67.3044 3.41357L64.1031 3.37207L62.3052 3.50487L52.9101 5.83937L44.5507 11.6306L39.3356 16.3266L36.3128 20.5825L32.634 27.2508L30.2714 34.7953L28.0417 44.1375L26.5137 53.567L24.0639 61.8132L21.2612 67.1652L16.8806 73.7462Z" stroke="#3760A9" stroke-width="5"/>
</svg>
