<svg width="150" height="150" viewBox="0 0 150 150" fill="none" xmlns="http://www.w3.org/2000/svg">
<circle cx="75" cy="75" r="75" fill="black"/>
<g clip-path="url(#clip0_157_61)">
<path d="M45.785 62C32.6 65.4 24 71.225 24 77.875C24 88.41 46.025 97 73.25 97C76.95 97 79.55 96.805 83 96.515" stroke="#00D8FF" stroke-width="5" stroke-linecap="round" stroke-linejoin="round"/>
<path d="M63.1856 96.5011C61.1206 93.5211 59.1556 90.8361 57.2856 87.5011C43.5306 63.0011 39.8456 38.6511 49.1356 33.1361C54.8856 29.6511 64.3706 34.4011 74.0056 44.4061" stroke="#00D8FF" stroke-width="5" stroke-linecap="round" stroke-linejoin="round"/>
<path d="M46.1436 93.935C42.6336 107.375 43.3436 117.515 48.9436 120.91C57.8586 126.31 75.8786 111.12 89.1586 86.89C90.9586 83.54 92.5736 80.245 93.9986 77" stroke="#00D8FF" stroke-width="5" stroke-linecap="round" stroke-linejoin="round"/>
<path d="M74 109.6C83.64 119.6 93.085 124.35 98.89 120.865C108.14 115.355 104.495 91.0055 90.725 66.5005C88.805 63.1155 86.84 60.4805 84.825 57.5005" stroke="#00D8FF" stroke-width="5" stroke-linecap="round" stroke-linejoin="round"/>
<path d="M102.301 92C115.361 88.565 124.001 82.75 124.001 76.12C124.001 65.57 101.961 57 74.776 57C71.041 57 68.446 57.145 65.001 57.435" stroke="#00D8FF" stroke-width="5" stroke-linecap="round" stroke-linejoin="round"/>
<path d="M54 77.0012C55.425 73.7012 57.035 70.4612 58.84 67.1112C72.075 42.8912 90.105 27.6612 99.07 33.1062C104.62 36.5012 105.38 46.6362 101.87 60.0712M75.3 77.0762H75.25C75.2 77.7262 74.65 78.2762 73.95 78.2762C73.6152 78.2597 73.2994 78.1159 73.067 77.8743C72.8347 77.6326 72.7034 77.3114 72.7 76.9762C72.7 76.2762 73.25 75.7262 73.9 75.7262H73.85C74.5 75.6762 75.1 76.2762 75.1 76.9262" stroke="#00D8FF" stroke-width="5" stroke-linecap="round" stroke-linejoin="round"/>
<circle cx="73.5" cy="77.5" r="7.5" fill="#00D8FF"/>
<path d="M70.3112 82.8896C70.2047 82.8293 70.1104 82.751 70.0322 82.6582C70.1122 82.7494 70.2067 82.8272 70.3112 82.8896ZM70.5409 82.9747C70.6222 82.995 70.7064 83.005 70.7899 82.9989C70.7059 83.0039 70.6219 82.9956 70.5414 82.9744L70.5409 82.9747Z" fill="#083042"/>
<path d="M79.0693 85.5289L79.0361 85.5478C78.7037 85.7382 78.3303 85.8445 77.9508 85.8568L69.2137 86.0567C68.6978 86.0679 68.2306 85.8109 67.9885 85.3842L63.8324 78.0608C63.6543 77.747 63.5426 77.4125 63.5312 77.0709L56.7062 77.2389C56.7383 77.8008 56.9078 78.3596 57.2097 78.8765L64.0739 90.9718C64.2763 91.3195 64.5707 91.6054 64.9273 91.8004C65.2839 91.9955 65.69 92.0928 66.1043 92.0825L80.5192 91.7609C81.1555 91.7478 81.7724 91.5636 82.3116 91.2576L82.3081 91.2514C81.8906 90.4853 80.1581 87.4474 79.0693 85.5289Z" fill="white"/>
<path d="M77.6617 70.8087L77.5902 70.775C77.5325 70.7498 77.4785 70.7305 77.421 70.7055C77.475 70.7244 77.5326 70.75 77.5902 70.775C77.6158 70.7826 77.6399 70.7938 77.6617 70.8087ZM70.4859 71.0018C70.5192 70.9829 70.542 70.9618 70.5751 70.943C70.5455 70.9679 70.5125 70.9867 70.4859 71.0018Z" fill="#3DDB85"/>
<path d="M63.5203 77.0686C63.5012 76.6927 63.596 76.316 63.7929 75.9857L68.0819 68.8677C68.2779 68.5408 68.5561 68.2671 68.8889 68.0739C69.2217 67.8806 69.5975 67.7746 69.9788 67.7664L78.2911 67.5837C78.6638 67.575 79.0308 67.6502 79.3637 67.8037L82.8513 61.9536C82.3043 61.7032 81.7023 61.58 81.0907 61.5932L67.3616 61.8991C66.7334 61.9135 66.1145 62.0886 65.5662 62.407C65.0179 62.7254 64.5594 63.1761 64.2359 63.7143L57.1555 75.4584C56.8287 76.0004 56.6719 76.6207 56.7055 77.2392L63.5203 77.0686Z" fill="#3DDC84"/>
<path d="M66.9727 76.9756C66.9718 76.9429 66.9706 76.9104 66.9737 76.8844C66.9743 76.917 66.972 76.9428 66.9727 76.9756Z" fill="#3DDB85"/>
<path d="M82.8451 61.9573L79.3575 67.8075C79.7112 67.9715 80.0146 68.2301 80.2096 68.5593L84.1666 75.5317C84.3518 75.8488 84.446 76.2113 84.4395 76.582C84.433 76.9527 84.3261 77.3184 84.1297 77.6415L79.8405 84.7603C79.651 85.0742 79.3855 85.3388 79.0684 85.5299C80.1607 87.4385 81.8867 90.4797 82.304 91.246L82.3075 91.2522C82.8564 90.9329 83.3168 90.4831 83.6443 89.946L90.7213 78.1955C91.3786 77.1013 91.4082 75.7744 90.7864 74.7097L84.2566 63.2038C83.9332 62.6495 83.4336 62.2285 82.8451 61.9573Z" fill="#4285F4"/>
<path d="M80.9702 76.3594C80.9708 76.376 80.9779 76.3886 80.9787 76.4054C80.9795 76.3895 80.9766 76.3738 80.9702 76.3594ZM77.7621 70.8604C77.7306 70.8365 77.6966 70.8226 77.6592 70.8025C77.6966 70.8226 77.7345 70.8428 77.7621 70.8604ZM77.9187 82.1364L80.792 77.3642L77.919 82.1369L77.9187 82.1364ZM80.999 76.5337C81.0036 76.5728 81.0017 76.6153 81.006 76.6545C80.9982 76.6091 80.9934 76.5702 80.999 76.5337Z" fill="#4285F4"/>
<path d="M66.986 77.0425C67.0016 77.1947 67.0416 77.3427 67.1046 77.4812C67.1263 77.5348 67.1548 77.5851 67.187 77.6417L69.9732 82.5512C69.9944 82.5887 70.0123 82.6202 70.0404 82.6542C70.114 82.7529 70.2105 82.831 70.3193 82.8856C70.3945 82.9257 70.4686 82.9495 70.5435 82.9735C70.6248 82.9938 70.7085 83.0041 70.792 82.9986L76.6473 82.8671C76.9013 82.8601 77.1514 82.7894 77.3737 82.6618L77.42 82.6355C77.6253 82.51 77.796 82.3361 77.916 82.1304L80.7892 77.358C80.8084 77.3305 80.8174 77.3003 80.8368 77.273C80.8651 77.2155 80.8933 77.1578 80.9113 77.0978C80.9424 77.0088 80.9665 76.9178 80.9825 76.8253C80.9904 76.7628 80.9986 76.7005 80.9999 76.6414C81.0018 76.5993 80.9974 76.56 80.9924 76.5212C80.9882 76.4828 80.9866 76.4336 80.9784 76.3887C80.9775 76.3722 80.9704 76.3597 80.97 76.3435C80.9408 76.1992 80.8886 76.0609 80.8156 75.9336L78.1645 71.2623C78.1149 71.1747 78.0552 71.1007 77.9896 71.0304C77.9444 70.9811 77.8956 70.9423 77.8476 70.9031L77.7657 70.8505C77.7347 70.8264 77.7004 70.8129 77.663 70.7925L77.5917 70.7586C77.5338 70.7331 77.4796 70.7144 77.4219 70.6891C77.2466 70.6298 77.0605 70.6033 76.8731 70.6108L71.2996 70.732C71.2033 70.7339 71.1072 70.744 71.0121 70.7622C70.8874 70.7915 70.7662 70.8353 70.6512 70.8927L70.5657 70.9412C70.5332 70.9597 70.5068 70.9747 70.4774 70.9992C70.4055 71.0486 70.3378 71.1037 70.275 71.1639C70.2655 71.1775 70.2524 71.1849 70.2429 71.1991C70.1585 71.2802 70.0911 71.3761 70.0274 71.4785L67.1543 76.2511C67.0708 76.3898 67.0154 76.5424 66.9914 76.7001C66.9838 76.7624 66.9757 76.8251 66.9742 76.8839C66.9754 76.9165 66.973 76.9426 66.9739 76.9753L66.986 77.0425Z" fill="#D6F0FF"/>
<path d="M77.4187 82.6362L77.3726 82.6623C77.1502 82.7899 76.9 82.8608 76.6459 82.8681L70.791 82.9992C70.7069 83.0012 70.6233 82.9929 70.5421 82.9745C70.4632 82.9554 70.3878 82.9256 70.3179 82.8861C70.2114 82.8257 70.1171 82.7474 70.0389 82.6546C70.0109 82.6213 69.993 82.5897 69.9717 82.5523L67.1853 77.6423C67.1569 77.5923 67.125 77.5361 67.1032 77.4817C67.0412 77.3431 67.001 77.1953 66.9847 77.0432L65.3725 77.0218L63.5214 77.0693C63.5392 77.4072 63.6443 77.7452 63.8224 78.0589L67.9786 85.3826C68.1022 85.5912 68.2802 85.7629 68.4949 85.8809C68.7097 85.9989 68.954 86.059 69.2037 86.0554L77.9383 85.8648C78.3182 85.8558 78.6924 85.7493 79.0235 85.5558L79.0568 85.537C78.5265 84.6025 78.1424 83.9419 78.1424 83.9419L77.4187 82.6362Z" fill="#083042"/>
<path d="M77.4187 82.6362L77.3726 82.6623C77.1502 82.7899 76.9 82.8608 76.6459 82.8681L70.791 82.9992C70.7069 83.0012 70.6233 82.9929 70.5421 82.9745C70.4632 82.9554 70.3878 82.9256 70.3179 82.8861C70.2114 82.8257 70.1171 82.7474 70.0389 82.6546C70.0109 82.6213 69.993 82.5897 69.9717 82.5523L67.1853 77.6423C67.1569 77.5923 67.125 77.5361 67.1032 77.4817C67.0412 77.3431 67.001 77.1953 66.9847 77.0432L65.3725 77.0218L63.5214 77.0693C63.5392 77.4072 63.6443 77.7452 63.8224 78.0589L67.9786 85.3826C68.1022 85.5912 68.2802 85.7629 68.4949 85.8809C68.7097 85.9989 68.954 86.059 69.2037 86.0554L77.9383 85.8648C78.3182 85.8558 78.6924 85.7493 79.0235 85.5558L79.0568 85.537C78.5265 84.6025 78.1424 83.9419 78.1424 83.9419L77.4187 82.6362Z" fill="#D9D9D9"/>
<path d="M78.2852 67.5878L69.9726 67.7704C69.5914 67.7787 69.2157 67.8848 68.883 68.078C68.5502 68.2712 68.2721 68.5449 68.0761 68.8717L63.7872 75.99C63.5877 76.3194 63.4926 76.697 63.5145 77.0732L65.3727 77.0217L66.9844 77.0433L66.972 76.9761C66.9709 76.9431 66.9698 76.9108 66.9723 76.8847C66.9737 76.8258 66.9818 76.7632 66.9897 76.7007C67.0147 76.5455 67.0702 76.3982 67.1526 76.2518L70.0254 71.4792C70.0881 71.3793 70.1598 71.2861 70.2409 71.1998C70.2507 71.1861 70.2638 71.1787 70.2731 71.1647C70.3354 71.104 70.4032 71.0491 70.4753 71.0003C70.5081 70.9817 70.5309 70.9604 70.5639 70.9416L70.6494 70.8931C70.7647 70.8367 70.8854 70.7927 71.0101 70.7627C71.1048 70.7416 71.2011 70.7314 71.2974 70.7329L76.8712 70.6122C77.0585 70.6066 77.2443 70.633 77.4203 70.69C77.4741 70.709 77.5324 70.7342 77.5897 70.7594L77.6613 70.7931L78.358 69.478L79.3573 67.7918C79.0277 67.6553 78.6599 67.574 78.2852 67.5878Z" fill="#3DDB85"/>
<path d="M78.2852 67.5878L69.9726 67.7704C69.5914 67.7787 69.2157 67.8848 68.883 68.078C68.5502 68.2712 68.2721 68.5449 68.0761 68.8717L63.7872 75.99C63.5877 76.3194 63.4926 76.697 63.5145 77.0732L65.3727 77.0217L66.9844 77.0433L66.972 76.9761C66.9709 76.9431 66.9698 76.9108 66.9723 76.8847C66.9737 76.8258 66.9818 76.7632 66.9897 76.7007C67.0147 76.5455 67.0702 76.3982 67.1526 76.2518L70.0254 71.4792C70.0881 71.3793 70.1598 71.2861 70.2409 71.1998C70.2507 71.1861 70.2638 71.1787 70.2731 71.1647C70.3354 71.104 70.4032 71.0491 70.4753 71.0003C70.5081 70.9817 70.5309 70.9604 70.5639 70.9416L70.6494 70.8931C70.7647 70.8367 70.8854 70.7927 71.0101 70.7627C71.1048 70.7416 71.2011 70.7314 71.2974 70.7329L76.8712 70.6122C77.0585 70.6066 77.2443 70.633 77.4203 70.69C77.4741 70.709 77.5324 70.7342 77.5897 70.7594L77.6613 70.7931L78.358 69.478L79.3573 67.7918C79.0277 67.6553 78.6599 67.574 78.2852 67.5878Z" fill="#37BF6E"/>
<path d="M77.6616 70.8097C77.6989 70.8296 77.7265 70.8472 77.7639 70.8677L77.8462 70.9204C77.975 71.0183 78.0825 71.1401 78.163 71.2793L80.8142 75.9508C80.8871 76.0782 80.939 76.2164 80.9683 76.3607C80.9689 76.3767 80.9761 76.3895 80.9765 76.4056C80.9848 76.4494 80.9897 76.4938 80.9913 76.5386C80.9953 76.5771 80.9935 76.6198 80.9982 76.6586C80.9971 76.7175 80.9888 76.7799 80.9808 76.8427C80.9649 76.935 80.941 77.0261 80.9095 77.1149C80.8915 77.175 80.8632 77.2325 80.835 77.2902C80.8156 77.3175 80.8069 77.3475 80.7877 77.375L77.9141 82.1474C77.7885 82.349 77.6191 82.5218 77.4184 82.6529L78.1549 83.9507C78.1549 83.9507 78.5322 84.6155 79.069 85.5459C79.3882 85.3576 79.6543 85.0923 79.8411 84.7763L84.13 77.6581C84.5271 76.9937 84.5405 76.19 84.1674 75.5482L80.2104 68.5756C80.0117 68.2406 79.7119 67.9878 79.3582 67.8238L78.3585 69.5105L77.6616 70.8097Z" fill="#4285F4"/>
<path d="M77.6616 70.8097C77.6989 70.8296 77.7265 70.8472 77.7639 70.8677L77.8462 70.9204C77.975 71.0183 78.0825 71.1401 78.163 71.2793L80.8142 75.9508C80.8871 76.0782 80.939 76.2164 80.9683 76.3607C80.9689 76.3767 80.9761 76.3895 80.9765 76.4056C80.9848 76.4494 80.9897 76.4938 80.9913 76.5386C80.9953 76.5771 80.9935 76.6198 80.9982 76.6586C80.9971 76.7175 80.9888 76.7799 80.9808 76.8427C80.9649 76.935 80.941 77.0261 80.9095 77.1149C80.8915 77.175 80.8632 77.2325 80.835 77.2902C80.8156 77.3175 80.8069 77.3475 80.7877 77.375L77.9141 82.1474C77.7885 82.349 77.6191 82.5218 77.4184 82.6529L78.1549 83.9507C78.1549 83.9507 78.5322 84.6155 79.069 85.5459C79.3882 85.3576 79.6543 85.0923 79.8411 84.7763L84.13 77.6581C84.5271 76.9937 84.5405 76.19 84.1674 75.5482L80.2104 68.5756C80.0117 68.2406 79.7119 67.9878 79.3582 67.8238L78.3585 69.5105L77.6616 70.8097Z" fill="#3870B2"/>
<path d="M70.2519 71.2018C70.1673 71.283 70.1 71.3792 70.0366 71.481L67.1633 76.2538L70.0364 71.4817C70.0945 71.3795 70.167 71.2854 70.2516 71.2025L70.2519 71.2018Z" fill="#D6F0FF"/>
<path opacity="0.1" d="M70.2519 71.2018C70.1673 71.283 70.1 71.3792 70.0366 71.481L67.1633 76.2538L70.0364 71.4817C70.0945 71.3795 70.167 71.2854 70.2516 71.2025L70.2519 71.2018Z" fill="black"/>
<path d="M77.8432 70.9138C77.8928 70.9536 77.9401 70.9961 77.9848 71.0411C77.9432 70.9983 77.8944 70.9595 77.8428 70.9141L77.8432 70.9138Z" fill="#D6F0FF"/>
<path opacity="0.1" d="M77.8432 70.9138C77.8928 70.9536 77.9401 70.9961 77.9848 71.0411C77.9432 70.9983 77.8944 70.9595 77.8428 70.9141L77.8432 70.9138Z" fill="black"/>
<circle cx="74" cy="77" r="3" fill="#00D8FF"/>
</g>
<defs>
<clipPath id="clip0_157_61">
<rect width="105" height="105" fill="white" transform="translate(22 24)"/>
</clipPath>
</defs>
</svg>
