<svg width="60" height="60" viewBox="0 0 60 60" fill="none" xmlns="http://www.w3.org/2000/svg">
<g clip-path="url(#clip0_164_119)">
<mask id="mask0_164_119" style="mask-type:luminance" maskUnits="userSpaceOnUse" x="0" y="0" width="60" height="60">
<path d="M30 60C46.5685 60 60 46.5685 60 30C60 13.4315 46.5685 0 30 0C13.4315 0 0 13.4315 0 30C0 46.5685 13.4315 60 30 60Z" fill="white"/>
</mask>
<g mask="url(#mask0_164_119)">
<path d="M30 60C46.5685 60 60 46.5685 60 30C60 13.4315 46.5685 0 30 0C13.4315 0 0 13.4315 0 30C0 46.5685 13.4315 60 30 60Z" fill="black"/>
<path d="M49.8361 52.5066L23.0473 18H18V41.9899H22.0378V23.1281L46.6664 54.9483C47.776 54.2056 48.8349 53.3899 49.8361 52.5066Z" fill="url(#paint0_linear_164_119)"/>
<path d="M38.3335 18H42.3336V42H38.3335V18Z" fill="url(#paint1_linear_164_119)"/>
</g>
</g>
<defs>
<linearGradient id="paint0_linear_164_119" x1="1789.14" y1="2101.33" x2="2852.27" y2="3419.04" gradientUnits="userSpaceOnUse">
<stop stop-color="white"/>
<stop offset="1" stop-color="white" stop-opacity="0"/>
</linearGradient>
<linearGradient id="paint1_linear_164_119" x1="238.337" y1="18" x2="231.57" y2="1780.49" gradientUnits="userSpaceOnUse">
<stop stop-color="white"/>
<stop offset="1" stop-color="white" stop-opacity="0"/>
</linearGradient>
<clipPath id="clip0_164_119">
<rect width="60" height="60" fill="white"/>
</clipPath>
</defs>
</svg>
