<svg width="128" height="26" viewBox="0 0 128 26" fill="none" xmlns="http://www.w3.org/2000/svg">
<path d="M0 0V25.762H4.422V5.506L20.73 25.772H48.424V21.659H30.553V14.858H44.923V10.745H30.553V4.124H48.423V0.00799942H26.13V4.124H26.132V25.582L5.527 0H0ZM85.09 0.0100021V4.125H94.12V25.775H98.54V4.125H107.387V0.00899887H85.09V0.0100021ZM53.768 0.0209999L74.498 25.785H80.301L69.936 12.912L80.286 0.0410004L74.496 0.0509987L67.037 9.312L59.557 0.0219994H53.767L53.768 0.0209999ZM123.926 14.619C123.165 14.619 122.481 14.747 121.875 15.013C121.273 15.276 120.797 15.646 120.449 16.121C120.099 16.597 119.924 17.153 119.924 17.785C119.924 18.555 120.182 19.169 120.704 19.632C121.221 20.096 121.931 20.441 122.828 20.668L124.068 20.98C124.418 21.0648 124.761 21.1765 125.094 21.314C125.352 21.4161 125.586 21.5735 125.777 21.775C125.943 21.9688 126.031 22.217 126.025 22.472C126.028 22.7645 125.927 23.0487 125.742 23.275C125.541 23.5179 125.278 23.7025 124.982 23.81C124.62 23.9437 124.236 24.0088 123.85 24.002C123.47 24.0072 123.092 23.9456 122.734 23.82C122.422 23.7076 122.145 23.5156 121.93 23.263C121.718 22.997 121.595 22.6714 121.578 22.332H119.637C119.664 23.042 119.853 23.648 120.203 24.144C120.553 24.64 121.039 25.017 121.663 25.274C122.283 25.534 123.02 25.664 123.865 25.664C124.74 25.664 125.484 25.528 126.098 25.264C126.715 24.994 127.186 24.621 127.512 24.146C127.839 23.667 128 23.118 128 22.488C128 22.022 127.91 21.616 127.734 21.271C127.559 20.9278 127.314 20.6255 127.014 20.384C126.702 20.1341 126.356 19.9297 125.986 19.777C125.601 19.6139 125.203 19.485 124.796 19.392L123.776 19.142C123.551 19.0881 123.328 19.023 123.109 18.947C122.9 18.8757 122.699 18.7801 122.512 18.662C122.338 18.558 122.191 18.4149 122.082 18.244C121.973 18.0705 121.918 17.8687 121.924 17.664C121.925 17.4057 122.008 17.1545 122.162 16.947C122.318 16.737 122.547 16.571 122.84 16.447C123.177 16.3175 123.535 16.255 123.896 16.263C124.481 16.263 124.958 16.389 125.326 16.646C125.504 16.766 125.652 16.9245 125.76 17.1097C125.868 17.295 125.932 17.5023 125.949 17.716H127.849C127.849 17.1401 127.67 16.5785 127.336 16.109C127.003 15.643 126.544 15.276 125.959 15.013C125.375 14.748 124.699 14.619 123.926 14.619ZM115.928 14.763V22.313C115.925 22.69 115.866 23.01 115.752 23.267C115.649 23.5102 115.472 23.7147 115.246 23.851C115.028 23.984 114.758 24.051 114.443 24.051C114.153 24.051 113.897 23.994 113.672 23.881C113.455 23.7746 113.274 23.6075 113.15 23.4C113.019 23.1719 112.952 22.9129 112.955 22.65H110.992C110.992 23.311 111.139 23.863 111.439 24.306C111.737 24.75 112.158 25.098 112.65 25.308C113.193 25.5405 113.779 25.6563 114.37 25.648C115.067 25.648 115.681 25.514 116.205 25.248C116.719 24.9926 117.149 24.5935 117.441 24.099C117.734 23.6 117.885 23.006 117.889 22.312V14.763H115.928ZM62.596 14.822L53.752 25.804H59.557L65.494 18.424L62.596 14.822ZM108.381 23.32C108.057 23.32 107.781 23.432 107.551 23.656C107.44 23.7586 107.352 23.8835 107.292 24.0226C107.233 24.1617 107.204 24.3118 107.207 24.463C107.203 24.6159 107.232 24.7679 107.291 24.9089C107.351 25.0499 107.439 25.1767 107.551 25.281C107.781 25.506 108.057 25.617 108.381 25.617C108.583 25.6184 108.782 25.5645 108.955 25.461C109.13 25.3606 109.278 25.2175 109.383 25.045C109.491 24.87 109.548 24.6686 109.549 24.463C109.549 24.3113 109.518 24.1613 109.457 24.0224C109.396 23.8835 109.307 23.7587 109.195 23.656C109.089 23.5485 108.962 23.4634 108.822 23.4057C108.682 23.348 108.532 23.3188 108.381 23.32Z" fill="black"/>
</svg>
