<svg width="60" height="66" viewBox="0 0 60 66" fill="none" xmlns="http://www.w3.org/2000/svg">
<path d="M58.185 32.4969C58.185 28.5229 55.4532 25.1796 51.7853 24.2245L60 0H19.2884L27.5226 24.301C23.9688 25.3327 21.3518 28.6185 21.3518 32.5157C21.3518 35.3815 22.7844 37.9224 24.9623 39.4889C24.1028 40.7116 23.1094 41.839 21.982 42.9087C19.8615 44.8955 17.5117 46.4238 14.9709 47.4364C12.6781 45.889 11.6847 43.1571 12.5828 40.7116C16.0788 39.642 18.6196 36.375 18.6196 32.5349C18.6196 27.8161 14.7798 23.9952 10.0799 23.9952C5.36119 23.9952 1.52141 27.8353 1.52141 32.554C1.52141 34.8847 2.47657 37.0246 4.00483 38.5529C3.87121 38.8204 3.73758 39.0877 3.60363 39.3744C2.32348 42.0109 0.871773 44.9912 0.317483 48.3344C-0.790437 55.0209 1.02453 60.3893 5.39946 63.427C7.86407 65.1271 10.5768 65.9869 13.4997 65.9869C18.5243 65.9869 23.625 63.4652 28.5539 61.0198C32.0694 59.2813 35.699 57.4664 39.2715 56.5874C40.5899 56.2628 41.9654 56.0717 43.4175 55.8616C46.3595 55.4412 49.3972 55.0018 52.1291 53.4161C55.3195 51.5632 57.4974 48.4681 58.128 44.9147C58.6054 42.1828 58.128 39.4318 56.9052 37.0246C57.7268 35.7062 58.185 34.1588 58.185 32.4969ZM54.4597 32.4969C54.4597 35.1522 52.301 37.311 49.6453 37.311C46.99 37.311 44.8313 35.1522 44.8313 32.4969C44.8313 31.6371 45.0602 30.8156 45.4614 30.1089C45.6178 29.8393 45.7968 29.5835 45.9966 29.3444C46.1876 29.1154 46.4169 28.9053 46.665 28.7142L46.6842 28.6951C46.8369 28.5803 47.0092 28.4658 47.1811 28.351C47.1811 28.351 47.2002 28.351 47.2002 28.3318C47.2764 28.2939 47.353 28.2365 47.4292 28.1982C47.4483 28.1982 47.4674 28.1791 47.4866 28.1791C47.5631 28.1408 47.6585 28.1028 47.7542 28.0646C47.8495 28.0263 47.9452 27.988 48.0214 27.9498C48.0405 27.9498 48.0597 27.9306 48.0788 27.9306C48.1553 27.9118 48.2316 27.8735 48.3081 27.8544C48.3272 27.8544 48.3655 27.8353 48.3847 27.8353C48.48 27.8161 48.5566 27.797 48.6519 27.7779H48.671L48.9578 27.7208C48.9769 27.7208 49.0148 27.7208 49.034 27.7016C49.1105 27.7016 49.1871 27.6825 49.2633 27.6825H49.359C49.4543 27.6825 49.55 27.6634 49.6645 27.6634H49.9129C49.9895 27.6634 50.0465 27.6634 50.1231 27.6825H50.1613C50.3141 27.7016 50.4669 27.7208 50.6196 27.7587C52.7975 28.2173 54.4597 30.1659 54.4597 32.4969ZM24.6185 3.82097H54.6699L47.7733 24.1671C47.4866 24.2245 47.2002 24.3201 46.9135 24.4155L39.6539 9.60968L32.3749 24.3201C32.0885 24.2245 31.7827 24.1671 31.4772 24.11L24.6185 3.82097ZM38.2781 30.8347C37.9152 29.0389 36.9983 27.4341 35.699 26.2496L39.6539 18.2639L43.6465 26.4215C42.462 27.606 41.6025 29.1154 41.2584 30.8347H38.2781ZM28.707 27.8161C28.8024 27.797 28.8789 27.7779 28.9743 27.7587H29.0317C29.1082 27.7396 29.1844 27.7396 29.261 27.7208H29.3372C29.4137 27.7208 29.4712 27.7016 29.5474 27.7016H30.2927C30.3689 27.7016 30.4263 27.7208 30.4837 27.7208C30.522 27.7208 30.5408 27.7208 30.5791 27.7396C30.6556 27.7587 30.713 27.7587 30.7892 27.7779C30.8084 27.7779 30.8275 27.7779 30.8658 27.797C30.9611 27.8161 31.0568 27.8353 31.133 27.8544H31.1522C31.2287 27.8735 31.3053 27.8927 31.3815 27.9306C31.4006 27.9306 31.4197 27.9498 31.458 27.9498C31.5154 27.9689 31.5916 27.988 31.6491 28.0263C31.6682 28.0263 31.6873 28.0454 31.7065 28.0454C31.7827 28.0837 31.8592 28.1028 31.9354 28.1408H31.9546C32.0503 28.1791 32.1265 28.2173 32.203 28.2747H32.2222C32.2987 28.313 32.3749 28.3701 32.4515 28.4084C32.4706 28.4084 32.4706 28.4275 32.4897 28.4275C32.5659 28.4658 32.6234 28.5229 32.6999 28.5611L32.7187 28.5803C32.948 28.7522 33.1582 28.9432 33.3683 29.1342L33.3875 29.1534C33.5785 29.3635 33.7695 29.5928 33.9223 29.8413C34.4349 30.6249 34.7072 31.5414 34.7056 32.4778C34.7056 35.1331 32.5468 37.2919 29.8915 37.2919C27.2358 37.2919 25.0771 35.1331 25.0771 32.4778C25.058 30.2425 26.6053 28.351 28.707 27.8161ZM9.90802 27.6825C12.5637 27.6825 14.7224 29.8413 14.7224 32.4969C14.7224 35.1522 12.5637 37.311 9.90802 37.311C7.25271 37.311 5.09361 35.1522 5.09361 32.4969C5.09361 29.8413 7.25271 27.6825 9.90802 27.6825ZM54.3452 44.2459C53.9249 46.6914 52.4155 48.831 50.1993 50.1111C48.1171 51.3147 45.5571 51.6968 42.8632 52.0789C41.3924 52.289 39.845 52.5183 38.3546 52.8813C34.3809 53.8556 30.5599 55.7659 26.8538 57.6C22.1159 59.9498 17.6453 62.166 13.4997 62.166C11.3409 62.166 9.41147 61.5546 7.57736 60.2748C3.37433 57.3707 3.58449 51.9261 4.08137 48.9458C4.53998 46.1565 5.8198 43.5392 7.04254 41.0366C7.11875 40.8835 7.17616 40.7499 7.25271 40.5971C7.68062 40.7518 8.12184 40.8669 8.57079 40.9409C7.84494 44.9912 9.90802 49.1751 13.92 51.2382L14.6459 51.6203L15.4291 51.3339C18.7727 50.1494 21.8675 48.2196 24.5993 45.6405C26.1471 44.1888 27.4652 42.6223 28.5731 40.9218C29.0125 40.9983 29.452 41.0175 29.8915 41.0175C33.8652 41.0175 37.2085 38.2853 38.1636 34.6174H41.3732C42.3284 38.3044 45.6716 41.0175 49.6453 41.0175C51.231 41.0175 52.7022 40.578 53.9632 39.833C54.4597 41.2656 54.6125 42.7559 54.3452 44.2459Z" fill="#99424F"/>
</svg>
