<svg width="60" height="57" viewBox="0 0 60 57" fill="none" xmlns="http://www.w3.org/2000/svg">
<path d="M41.5737 39.7812C43.7878 39.5519 45.4676 37.6432 45.3912 35.3524C45.315 33.0619 43.406 31.2293 41.1155 31.2293H40.9629C38.5957 31.3057 36.7634 33.2909 36.8398 35.6578C36.9162 36.8032 37.3741 37.7958 38.0613 38.483C35.4654 43.5989 31.4951 47.3402 25.5396 50.4708C21.4929 52.6087 17.2936 53.3723 13.0943 52.838C9.65836 52.3798 6.98601 50.8528 5.30601 48.3328C2.86289 44.5915 2.6339 40.5445 4.69547 36.4978C6.14625 33.5962 8.43656 31.4583 9.88734 30.3893C9.58195 29.3967 9.12375 27.7169 8.89476 26.4954C-2.17641 34.5127 -1.03102 45.3551 2.32851 50.4708C4.84804 54.2887 9.96375 56.6557 15.6138 56.6557C17.1408 56.6557 18.6677 56.5029 20.1949 56.1213C29.9681 54.2123 37.3744 48.4092 41.5737 39.7812ZM55.0118 30.3131C49.2089 23.5174 40.6575 19.7761 30.8843 19.7761H29.6627C28.9755 18.4017 27.5248 17.4853 25.9214 17.4853H25.7686C23.4019 17.5617 21.5695 19.5469 21.6457 21.9141C21.7221 24.2046 23.6309 26.0372 25.9214 26.0372H26.074C27.7537 25.9608 29.2045 24.8918 29.8153 23.441H31.1897C36.9926 23.441 42.4898 25.1208 47.453 28.4041C51.2705 30.9239 54.0192 34.2073 55.5462 38.1776C56.8441 41.3845 56.7677 44.5151 55.3933 47.1877C53.2556 51.2344 49.6671 53.4487 44.9332 53.4487C41.8791 53.4487 38.9777 52.5323 37.4505 51.8451C36.6108 52.6087 35.0836 53.8303 34.0146 54.5941C37.298 56.1211 40.6575 56.9611 43.8642 56.9611C51.1941 56.9611 56.6151 52.9141 58.6767 48.8674C60.8908 44.4387 60.738 36.8032 55.0118 30.3131ZM16.2246 41.0789C16.301 43.3697 18.2098 45.202 20.5003 45.202H20.6531C23.0201 45.1259 24.8524 43.1405 24.776 40.7735C24.6998 38.4827 22.7909 36.6504 20.5003 36.6504H20.3477C20.1949 36.6504 19.9657 36.6504 19.8134 36.7266C16.6828 31.5344 15.3848 25.8844 15.843 19.7759C16.1482 15.1945 17.6754 11.224 20.3477 7.94062C22.5619 5.11547 26.8376 3.74109 29.7391 3.66492C37.8323 3.51211 41.268 13.5909 41.4973 17.6379C42.4898 17.8669 44.1696 18.4015 45.315 18.7833C44.3986 6.4139 36.7634 0 29.4337 0C22.5619 0 16.2246 4.96312 13.7048 12.2932C10.1927 22.0666 12.4833 31.4583 16.759 38.8648C16.3774 39.3991 16.1482 40.2389 16.2246 41.0789Z" fill="#764ABC"/>
</svg>
