<svg width="60" height="43" viewBox="0 0 60 43" fill="none" xmlns="http://www.w3.org/2000/svg">
<path d="M0 34.7648L6.96513 30.5495C8.30909 32.932 9.53145 34.9479 12.4636 34.9479C15.2742 34.9479 17.0466 33.8486 17.0466 29.5721V0.48923H25.6V29.693C25.6 38.5521 20.4069 42.5847 12.8302 42.5847C5.98774 42.5847 2.0163 39.0417 0 34.7648ZM30.2459 33.8482L37.2103 29.816C39.0438 32.8101 41.4267 35.0094 45.642 35.0094C49.1865 35.0094 51.4463 33.2374 51.4463 30.7934C51.4463 27.8609 49.1246 26.822 45.2143 25.1118L43.0764 24.1945C36.9052 21.5681 32.8118 18.2686 32.8118 11.3035C32.8118 4.88804 37.6995 0 45.337 0C50.7747 0 54.685 1.89434 57.4952 6.84317L50.8351 11.1204C49.3685 8.49326 47.7806 7.45471 45.3366 7.45471C42.8314 7.45471 41.2429 9.04328 41.2429 11.1204C41.2429 13.6863 42.8314 14.7256 46.4971 16.3142L48.6354 17.2304C55.9063 20.3468 59.9996 23.5236 59.9996 30.6714C59.9996 38.3704 53.9511 42.5858 45.8251 42.5858C37.8826 42.5858 32.7507 38.7974 30.2459 33.8482Z" fill="black"/>
</svg>
