<svg width="40" height="36" viewBox="0 0 40 36" fill="none" xmlns="http://www.w3.org/2000/svg">
<path d="M32.888 11.535C32.4623 11.3889 32.033 11.2536 31.6005 11.1292C31.6731 10.8323 31.74 10.539 31.7994 10.2509C32.7741 5.5195 32.1369 1.70779 29.9605 0.452785C27.8737 -0.75034 24.4611 0.504192 21.0145 3.50372C20.6749 3.79987 20.3427 4.10455 20.0184 4.41747C19.8013 4.20939 19.5804 4.00534 19.3558 3.80544C15.7436 0.598254 12.123 -0.753465 9.94891 0.505129C7.86406 1.712 7.24672 5.29528 8.12422 9.77935C8.21152 10.2234 8.31009 10.6653 8.41984 11.1043C7.90734 11.25 7.41281 11.405 6.93953 11.57C2.70453 13.0465 0 15.3604 0 17.7606C0 20.2395 2.90344 22.7259 7.31437 24.2336C7.67198 24.3553 8.03256 24.4681 8.39578 24.5718C8.27782 25.0448 8.17309 25.5209 8.08172 25.9997C7.24516 30.4059 7.89844 33.9045 9.97766 35.1037C12.1252 36.3422 15.7295 35.0693 19.2391 32.0014C19.5236 31.752 19.802 31.4955 20.0737 31.2322C20.4249 31.571 20.7855 31.9 21.155 32.2187C24.5547 35.144 27.9122 36.3253 29.9894 35.1228C32.1348 33.8808 32.8322 30.1223 31.9269 25.5497C31.8556 25.1914 31.7756 24.835 31.687 24.4806C31.9402 24.4056 32.1886 24.3284 32.4308 24.2481C37.0164 22.7289 40 20.2726 40 17.7606C40 15.3517 37.2081 13.0222 32.888 11.535ZM31.8934 22.6262C31.6747 22.6986 31.4503 22.7684 31.2216 22.8364C30.7153 21.2337 30.0322 19.5297 29.1961 17.7689C29.9939 16.0501 30.6508 14.3678 31.1428 12.7756C31.552 12.894 31.9491 13.0189 32.3319 13.1506C36.0334 14.425 38.2912 16.3089 38.2912 17.7606C38.2912 19.3068 35.8528 21.3142 31.8934 22.6262ZM30.2506 25.8815C30.6509 27.9034 30.708 29.7315 30.4428 31.1608C30.2047 32.445 29.7256 33.3011 29.1331 33.644C27.8727 34.3737 25.1769 33.4253 22.2695 30.9234C21.9258 30.6271 21.5904 30.3212 21.2638 30.0062C22.3909 28.7736 23.5173 27.3406 24.6167 25.749C26.5505 25.5775 28.3773 25.2968 30.0341 24.9139C30.1139 25.2347 30.1861 25.5573 30.2506 25.8815ZM13.6369 33.5179C12.4053 33.9528 11.4244 33.9653 10.8314 33.6234C9.56969 32.8958 9.04516 30.0865 9.76062 26.3184C9.84567 25.8731 9.94306 25.4303 10.0527 24.9904C11.6911 25.3529 13.5047 25.6136 15.443 25.7708C16.5498 27.3281 17.7087 28.7595 18.8767 30.0129C18.6285 30.2531 18.3744 30.4871 18.1147 30.7148C16.5627 32.0714 15.0075 33.0339 13.6369 33.5179ZM7.86719 22.6167C5.91672 21.95 4.30594 21.0836 3.20188 20.1381C2.20969 19.2886 1.70891 18.445 1.70891 17.7606C1.70891 16.304 3.88031 14.4462 7.50203 13.1836C7.94156 13.0304 8.40156 12.8859 8.87891 12.7503C9.37953 14.3784 10.0361 16.0808 10.8284 17.8022C10.0258 19.549 9.35984 21.2786 8.85437 22.9259C8.52283 22.8309 8.19367 22.7278 7.86719 22.6167ZM9.80125 9.45107C9.04953 5.60935 9.54875 2.71138 10.8052 1.98404C12.1433 1.20935 15.1023 2.31388 18.2212 5.08325C18.4246 5.26425 18.6247 5.44892 18.8214 5.63716C17.6592 6.88513 16.5109 8.30591 15.4139 9.85404C13.5327 10.0284 11.7319 10.3084 10.0763 10.6836C9.97424 10.2752 9.88255 9.86409 9.80125 9.45107ZM27.0555 13.7118C26.6644 13.0364 26.2588 12.3694 25.8391 11.7114C27.1153 11.8728 28.3381 12.087 29.4864 12.3489C29.1417 13.4539 28.712 14.609 28.2063 15.7934C27.8366 15.092 27.4529 14.398 27.0555 13.7118ZM20.0192 6.85857C20.8073 7.71247 21.5967 8.66575 22.3731 9.70013C20.7981 9.62574 19.2205 9.62543 17.6455 9.69919C18.4227 8.67435 19.2187 7.72232 20.0192 6.85857ZM12.9378 13.7234C12.5454 14.404 12.1689 15.0937 11.8086 15.7918C11.3111 14.6117 10.8853 13.4512 10.5377 12.3306C11.6789 12.0753 12.8959 11.8665 14.1641 11.7081C13.7396 12.3701 13.3307 13.0422 12.9378 13.7234ZM14.2005 23.9347C12.8903 23.7884 11.655 23.5904 10.5141 23.342C10.8672 22.2014 11.3023 21.0162 11.8106 19.8108C12.1723 20.5094 12.5504 21.1995 12.9445 21.8804C13.3498 22.5804 13.7695 23.2661 14.2005 23.9347ZM20.0664 28.7831C19.2564 27.9093 18.4486 26.9426 17.6597 25.9029C18.4256 25.9329 19.2064 25.9483 20 25.9483C20.8153 25.9483 21.6213 25.93 22.4145 25.8947C21.6356 26.9531 20.8492 27.9212 20.0664 28.7831ZM28.2223 19.7492C28.757 20.9679 29.2077 22.1468 29.5655 23.2679C28.4058 23.5326 27.1536 23.7458 25.8342 23.904C26.257 23.2338 26.6664 22.5552 27.0622 21.8687C27.4646 21.1709 27.8514 20.4642 28.2223 19.7492ZM25.582 21.015C24.9761 22.0675 24.3361 23.1001 23.6631 24.1111C22.444 24.1974 21.2222 24.2403 20 24.2397C18.7552 24.2397 17.5444 24.2009 16.3784 24.1253C15.6878 23.1167 15.0357 22.0823 14.4233 21.0243C13.8138 19.972 13.2446 18.8969 12.7167 17.8014C13.2433 16.7056 13.8109 15.63 14.4183 14.5768C15.0255 13.5234 15.6723 12.4936 16.3577 11.4893C17.5472 11.3993 18.767 11.3525 19.9998 11.3525C21.2383 11.3525 22.4598 11.3998 23.6491 11.4904C24.3275 12.4932 24.9704 13.5197 25.5764 14.5678C26.1858 15.6186 26.7609 16.689 27.3008 17.7772C26.7665 18.8765 26.1932 19.9564 25.582 21.015ZM29.107 1.9331C30.4464 2.7056 30.9673 5.82075 30.1258 9.90591C30.072 10.1665 30.0117 10.432 29.9461 10.7012C28.2864 10.3181 26.4844 10.0333 24.5977 9.85622C23.4986 8.29107 22.3597 6.8681 21.2164 5.63622C21.516 5.3474 21.8228 5.06606 22.1364 4.79247C25.0895 2.22263 27.8495 1.20794 29.107 1.9331ZM20 14.1887C21.9727 14.1887 23.5719 15.7879 23.5719 17.7606C23.5719 19.7333 21.9727 21.3325 20 21.3325C18.0273 21.3325 16.4281 19.7333 16.4281 17.7606C16.4281 15.7879 18.0273 14.1887 20 14.1887Z" fill="#3760A9"/>
</svg>
