<svg width="42" height="37" viewBox="0 0 42 37" fill="none" xmlns="http://www.w3.org/2000/svg">
<path d="M33.888 12.535C33.4623 12.3889 33.033 12.2536 32.6005 12.1292C32.6731 11.8323 32.74 11.539 32.7994 11.2509C33.7741 6.5195 33.1369 2.70779 30.9605 1.45279C28.8737 0.24966 25.4611 1.50419 22.0145 4.50372C21.6749 4.79987 21.3427 5.10455 21.0184 5.41747C20.8013 5.20939 20.5804 5.00534 20.3558 4.80544C16.7436 1.59825 13.123 0.246535 10.9489 1.50513C8.86406 2.712 8.24672 6.29528 9.12422 10.7793C9.21152 11.2234 9.31009 11.6653 9.41984 12.1043C8.90734 12.25 8.41281 12.405 7.93953 12.57C3.70453 14.0465 1 16.3604 1 18.7606C1 21.2395 3.90344 23.7259 8.31437 25.2336C8.67198 25.3553 9.03256 25.4681 9.39578 25.5718C9.27782 26.0448 9.17309 26.5209 9.08172 26.9997C8.24516 31.4059 8.89844 34.9045 10.9777 36.1037C13.1252 37.3422 16.7295 36.0693 20.2391 33.0014C20.5236 32.752 20.802 32.4955 21.0737 32.2322C21.4249 32.571 21.7855 32.9 22.155 33.2187C25.5547 36.144 28.9122 37.3253 30.9894 36.1228C33.1348 34.8808 33.8322 31.1223 32.9269 26.5497C32.8556 26.1914 32.7756 25.835 32.687 25.4806C32.9402 25.4056 33.1886 25.3284 33.4308 25.2481C38.0164 23.7289 41 21.2726 41 18.7606C41 16.3517 38.2081 14.0222 33.888 12.535ZM32.8934 23.6262C32.6747 23.6986 32.4503 23.7684 32.2216 23.8364C31.7153 22.2337 31.0322 20.5297 30.1961 18.7689C30.9939 17.0501 31.6508 15.3678 32.1428 13.7756C32.552 13.894 32.9491 14.0189 33.3319 14.1506C37.0334 15.425 39.2912 17.3089 39.2912 18.7606C39.2912 20.3068 36.8528 22.3142 32.8934 23.6262ZM31.2506 26.8815C31.6509 28.9034 31.708 30.7315 31.4428 32.1608C31.2047 33.445 30.7256 34.3011 30.1331 34.644C28.8727 35.3737 26.1769 34.4253 23.2695 31.9234C22.9258 31.6271 22.5904 31.3212 22.2638 31.0062C23.3909 29.7736 24.5173 28.3406 25.6167 26.749C27.5505 26.5775 29.3773 26.2968 31.0341 25.9139C31.1139 26.2347 31.1861 26.5573 31.2506 26.8815ZM14.6369 34.5179C13.4053 34.9528 12.4244 34.9653 11.8314 34.6234C10.5697 33.8958 10.0452 31.0865 10.7606 27.3184C10.8457 26.8731 10.9431 26.4303 11.0527 25.9904C12.6911 26.3529 14.5047 26.6136 16.443 26.7708C17.5498 28.3281 18.7087 29.7595 19.8767 31.0129C19.6285 31.2531 19.3744 31.4871 19.1147 31.7148C17.5627 33.0714 16.0075 34.0339 14.6369 34.5179ZM8.86719 23.6167C6.91672 22.95 5.30594 22.0836 4.20188 21.1381C3.20969 20.2886 2.70891 19.445 2.70891 18.7606C2.70891 17.304 4.88031 15.4462 8.50203 14.1836C8.94156 14.0304 9.40156 13.8859 9.87891 13.7503C10.3795 15.3784 11.0361 17.0808 11.8284 18.8022C11.0258 20.549 10.3598 22.2786 9.85437 23.9259C9.52283 23.8309 9.19367 23.7278 8.86719 23.6167ZM10.8013 10.4511C10.0495 6.60935 10.5488 3.71138 11.8052 2.98404C13.1433 2.20935 16.1023 3.31388 19.2212 6.08325C19.4246 6.26425 19.6247 6.44892 19.8214 6.63716C18.6592 7.88513 17.5109 9.30591 16.4139 10.854C14.5327 11.0284 12.7319 11.3084 11.0763 11.6836C10.9742 11.2752 10.8825 10.8641 10.8013 10.4511ZM28.0555 14.7118C27.6644 14.0364 27.2588 13.3694 26.8391 12.7114C28.1153 12.8728 29.3381 13.087 30.4864 13.3489C30.1417 14.4539 29.712 15.609 29.2063 16.7934C28.8366 16.092 28.4529 15.398 28.0555 14.7118ZM21.0192 7.85857C21.8073 8.71247 22.5967 9.66575 23.3731 10.7001C21.7981 10.6257 20.2205 10.6254 18.6455 10.6992C19.4227 9.67435 20.2187 8.72232 21.0192 7.85857ZM13.9378 14.7234C13.5454 15.404 13.1689 16.0937 12.8086 16.7918C12.3111 15.6117 11.8853 14.4512 11.5377 13.3306C12.6789 13.0753 13.8959 12.8665 15.1641 12.7081C14.7396 13.3701 14.3307 14.0422 13.9378 14.7234ZM15.2005 24.9347C13.8903 24.7884 12.655 24.5904 11.5141 24.342C11.8672 23.2014 12.3023 22.0162 12.8106 20.8108C13.1723 21.5094 13.5504 22.1995 13.9445 22.8804C14.3498 23.5804 14.7695 24.2661 15.2005 24.9347ZM21.0664 29.7831C20.2564 28.9093 19.4486 27.9426 18.6597 26.9029C19.4256 26.9329 20.2064 26.9483 21 26.9483C21.8153 26.9483 22.6213 26.93 23.4145 26.8947C22.6356 27.9531 21.8492 28.9212 21.0664 29.7831ZM29.2223 20.7492C29.757 21.9679 30.2077 23.1468 30.5655 24.2679C29.4058 24.5326 28.1536 24.7458 26.8342 24.904C27.257 24.2338 27.6664 23.5552 28.0622 22.8687C28.4646 22.1709 28.8514 21.4642 29.2223 20.7492ZM26.582 22.015C25.9761 23.0675 25.3361 24.1001 24.6631 25.1111C23.444 25.1974 22.2222 25.2403 21 25.2397C19.7552 25.2397 18.5444 25.2009 17.3784 25.1253C16.6878 24.1167 16.0357 23.0823 15.4233 22.0243C14.8138 20.972 14.2446 19.8969 13.7167 18.8014C14.2433 17.7056 14.8109 16.63 15.4183 15.5768C16.0255 14.5234 16.6723 13.4936 17.3577 12.4893C18.5472 12.3993 19.767 12.3525 20.9998 12.3525C22.2383 12.3525 23.4598 12.3998 24.6491 12.4904C25.3275 13.4932 25.9704 14.5197 26.5764 15.5678C27.1858 16.6186 27.7609 17.689 28.3008 18.7772C27.7665 19.8765 27.1932 20.9564 26.582 22.015ZM30.107 2.9331C31.4464 3.7056 31.9673 6.82075 31.1258 10.9059C31.072 11.1665 31.0117 11.432 30.9461 11.7012C29.2864 11.3181 27.4844 11.0333 25.5977 10.8562C24.4986 9.29107 23.3597 7.8681 22.2164 6.63622C22.516 6.3474 22.8228 6.06606 23.1364 5.79247C26.0895 3.22263 28.8495 2.20794 30.107 2.9331ZM21 15.1887C22.9727 15.1887 24.5719 16.7879 24.5719 18.7606C24.5719 20.7333 22.9727 22.3325 21 22.3325C19.0273 22.3325 17.4281 20.7333 17.4281 18.7606C17.4281 16.7879 19.0273 15.1887 21 15.1887Z" fill="url(#paint0_linear_95_63)" stroke="url(#paint1_linear_95_63)" stroke-width="0.5"/>
<defs>
<linearGradient id="paint0_linear_95_63" x1="21.5771" y1="1" x2="20.4229" y2="36.5886" gradientUnits="userSpaceOnUse">
<stop stop-color="#F7A15E"/>
<stop offset="0.667213" stop-color="#F3685F"/>
</linearGradient>
<linearGradient id="paint1_linear_95_63" x1="21" y1="1" x2="21" y2="36.5886" gradientUnits="userSpaceOnUse">
<stop stop-color="#F7A15E"/>
<stop offset="1" stop-color="#F3685F"/>
</linearGradient>
</defs>
</svg>
