<svg width="256" height="256" viewBox="0 0 256 256" fill="none" xmlns="http://www.w3.org/2000/svg">
<rect width="256" height="256" rx="128" fill="black"/>
<path d="M179.552 103.14C177.849 102.556 176.132 102.014 174.402 101.517C174.692 100.329 174.96 99.1561 175.198 98.0036C179.096 79.078 176.547 63.8311 167.842 58.8111C159.495 53.9986 145.844 59.0168 132.058 71.0149C130.699 72.1995 129.371 73.4182 128.074 74.6699C127.205 73.8376 126.322 73.0214 125.423 72.2218C110.974 59.393 96.4919 53.9861 87.7956 59.0205C79.4562 63.848 76.9869 78.1811 80.4969 96.1174C80.8461 97.8938 81.2404 99.661 81.6794 101.417C79.6294 102 77.6512 102.62 75.7581 103.28C58.8181 109.186 48 118.442 48 128.042C48 137.958 59.6138 147.904 77.2575 153.934C78.6879 154.421 80.1302 154.872 81.5831 155.287C81.1113 157.179 80.6924 159.084 80.3269 160.999C76.9806 178.624 79.5937 192.618 87.9106 197.415C96.5006 202.369 110.918 197.277 124.956 185.006C126.095 184.008 127.208 182.982 128.295 181.929C129.7 183.284 131.142 184.6 132.62 185.875C146.219 197.576 159.649 202.301 167.958 197.491C176.539 192.523 179.329 177.489 175.708 159.199C175.422 157.766 175.102 156.34 174.748 154.922C175.761 154.622 176.754 154.314 177.723 153.992C196.066 147.916 208 138.091 208 128.042C208 118.407 196.833 109.089 179.552 103.14ZM175.574 147.505C174.699 147.794 173.801 148.074 172.886 148.346C170.861 141.935 168.129 135.119 164.784 128.076C167.976 121.201 170.603 114.471 172.571 108.102C174.208 108.576 175.796 109.076 177.327 109.602C192.134 114.7 201.165 122.236 201.165 128.042C201.165 134.227 191.411 142.257 175.574 147.505ZM169.003 160.526C170.604 168.614 170.832 175.926 169.771 181.643C168.819 186.78 166.902 190.204 164.532 191.576C159.491 194.495 148.707 190.701 137.078 180.694C135.703 179.508 134.362 178.285 133.055 177.025C137.564 172.094 142.069 166.362 146.467 159.996C154.202 159.31 161.509 158.187 168.136 156.656C168.455 157.939 168.744 159.229 169.003 160.526ZM102.548 191.072C97.6213 192.811 93.6975 192.861 91.3256 191.494C86.2787 188.583 84.1806 177.346 87.0425 162.274C87.3827 160.493 87.7722 158.721 88.2106 156.962C94.7644 158.412 102.019 159.454 109.772 160.083C114.199 166.312 118.835 172.038 123.507 177.052C122.514 178.012 121.498 178.949 120.459 179.859C114.251 185.286 108.03 189.136 102.548 191.072ZM79.4687 147.467C71.6669 144.8 65.2238 141.334 60.8075 137.552C56.8388 134.154 54.8356 130.78 54.8356 128.042C54.8356 122.216 63.5212 114.785 78.0081 109.734C79.7663 109.122 81.6063 108.544 83.5156 108.001C85.5181 114.514 88.1444 121.323 91.3138 128.209C88.1031 135.196 85.4394 142.114 83.4175 148.704C82.0913 148.324 80.7747 147.911 79.4687 147.467ZM87.205 94.8043C84.1981 79.4374 86.195 67.8455 91.2206 64.9361C96.5731 61.8374 108.409 66.2555 120.885 77.333C121.699 78.057 122.499 78.7957 123.286 79.5486C118.637 84.5405 114.044 90.2236 109.656 96.4161C102.131 97.1136 94.9275 98.2336 88.305 99.7343C87.897 98.1006 87.5302 96.4564 87.205 94.8043ZM156.222 111.847C154.658 109.145 153.035 106.478 151.356 103.846C156.461 104.491 161.352 105.348 165.946 106.396C164.567 110.816 162.848 115.436 160.825 120.174C159.346 117.368 157.812 114.592 156.222 111.847ZM128.077 84.4343C131.229 87.8499 134.387 91.663 137.493 95.8005C131.193 95.503 124.882 95.5017 118.582 95.7968C121.691 91.6974 124.875 87.8893 128.077 84.4343ZM99.7513 111.894C98.1815 114.616 96.6754 117.375 95.2344 120.167C93.2444 115.447 91.5413 110.805 90.1506 106.322C94.7156 105.301 99.5838 104.466 104.656 103.832C102.958 106.481 101.323 109.169 99.7513 111.894ZM104.802 152.739C99.5613 152.154 94.62 151.362 90.0563 150.368C91.4688 145.806 93.2094 141.065 95.2425 136.243C96.6893 139.038 98.2016 141.798 99.7781 144.522C101.399 147.322 103.078 150.064 104.802 152.739ZM128.266 172.132C125.026 168.637 121.794 164.771 118.639 160.612C121.703 160.732 124.826 160.793 128 160.793C131.261 160.793 134.485 160.72 137.658 160.579C134.543 164.812 131.397 168.685 128.266 172.132ZM160.889 135.997C163.028 140.872 164.831 145.587 166.262 150.072C161.623 151.131 156.614 151.983 151.337 152.616C153.028 149.935 154.666 147.221 156.249 144.475C157.858 141.684 159.406 138.857 160.889 135.997ZM150.328 141.06C147.904 145.27 145.345 149.4 142.653 153.444C137.776 153.79 132.889 153.961 128 153.959C123.021 153.959 118.177 153.804 113.514 153.501C110.751 149.467 108.143 145.329 105.693 141.097C103.255 136.888 100.978 132.588 98.8669 128.206C100.973 123.822 103.243 119.52 105.673 115.307L105.673 115.308C108.101 111.094 110.689 106.975 113.431 102.957C118.189 102.597 123.068 102.41 127.999 102.41C132.953 102.41 137.839 102.599 142.596 102.962C145.31 106.973 147.881 111.079 150.306 115.271C152.743 119.474 155.044 123.756 157.203 128.109C155.066 132.506 152.773 136.826 150.328 141.06ZM164.428 64.7324C169.786 67.8224 171.869 80.283 168.503 96.6236C168.288 97.6661 168.047 98.728 167.784 99.8049C161.146 98.2724 153.938 97.133 146.391 96.4249C141.994 90.1643 137.439 84.4724 132.866 79.5449C134.064 78.3896 135.291 77.2642 136.546 76.1699C148.358 65.8905 159.398 61.8318 164.428 64.7324ZM128 113.755C135.891 113.755 142.288 120.152 142.288 128.042C142.288 135.933 135.891 142.33 128 142.33C120.109 142.33 113.712 135.933 113.712 128.042C113.712 120.152 120.109 113.755 128 113.755Z" fill="#00D8FF"/>
</svg>
