<svg width="256" height="256" viewBox="0 0 256 256" fill="none" xmlns="http://www.w3.org/2000/svg">
<rect width="256" height="256" fill="#764ABC"/>
<path fill-rule="evenodd" clip-rule="evenodd" d="M104.251 170.001C98.5243 170.001 93.7528 165.42 93.5615 159.694C93.3703 157.594 93.9433 155.494 94.8973 154.158C84.2083 135.643 78.4821 112.165 87.2623 87.7319C93.5615 69.4072 109.404 57 126.584 57C144.909 57 163.997 73.035 166.287 103.957C163.424 103.002 159.225 101.666 156.743 101.094C156.171 90.9764 147.581 65.7802 127.347 66.162C120.094 66.3532 109.404 69.789 103.87 76.8509C97.1885 85.0597 93.371 94.9859 92.6075 106.438C91.4623 121.708 94.7068 135.834 102.534 148.814C102.915 148.623 103.488 148.623 103.869 148.623H104.251C109.977 148.623 114.75 153.204 114.94 158.93C115.131 164.847 110.55 169.81 104.633 170.001H104.251ZM190.529 132.78C176.022 115.791 154.644 106.439 130.211 106.439H127.157C125.439 103.002 121.812 100.712 117.804 100.712H117.422C111.504 100.903 106.923 105.866 107.114 111.783C107.305 117.509 112.077 122.09 117.804 122.09H118.185C122.385 121.9 126.012 119.227 127.539 115.601H130.974C145.481 115.601 159.225 119.8 171.632 128.008C181.176 134.307 188.048 142.515 191.865 152.44C195.11 160.457 194.919 168.283 191.483 174.964C186.139 185.081 177.168 190.617 165.333 190.617C157.698 190.617 150.444 188.326 146.626 186.608C144.527 188.517 140.709 191.571 138.037 193.48C146.244 197.297 154.644 199.397 162.66 199.397C180.985 199.397 194.537 189.28 199.691 179.164C205.227 168.093 204.845 149.005 190.529 132.78ZM156.934 156.449C162.47 155.876 166.669 151.104 166.478 145.377C166.287 139.651 161.515 135.07 155.789 135.07H155.407C149.49 135.261 144.909 140.223 145.099 146.141C145.29 149.004 146.436 151.485 148.153 153.204C141.663 165.993 131.738 175.346 116.849 183.172C106.732 188.517 96.2337 190.425 85.7352 189.09C77.1455 187.944 70.4653 184.126 66.2653 177.828C60.1573 168.474 59.585 158.358 64.7383 148.241C68.3653 140.987 74.0915 135.643 77.7185 132.97C76.955 130.489 75.8097 126.289 75.2367 123.235C47.5596 143.278 50.4223 170.383 58.8208 183.172C65.1208 192.716 77.909 198.633 92.0344 198.633C95.8519 198.633 99.6694 198.252 103.487 197.297C127.92 192.525 146.436 178.018 156.934 156.449Z" fill="white"/>
</svg>
