<svg width="256" height="256" viewBox="0 0 256 256" fill="none" xmlns="http://www.w3.org/2000/svg">
<g clip-path="url(#clip0_95_37)">
<path d="M0 0H256V256H0V0Z" fill="#F7DF1E"/>
<path d="M67.312 213.932L86.902 202.076C90.682 208.777 94.12 214.447 102.367 214.447C110.272 214.447 115.257 211.355 115.257 199.327V117.529H139.314V199.667C139.314 224.584 124.708 235.926 103.398 235.926C84.153 235.926 72.982 225.959 67.311 213.93M152.381 211.354L171.969 200.013C177.126 208.434 183.828 214.62 195.684 214.62C205.653 214.62 212.009 209.636 212.009 202.762C212.009 194.514 205.479 191.592 194.481 186.782L188.468 184.202C171.111 176.815 159.598 167.535 159.598 147.945C159.598 129.901 173.345 116.153 194.826 116.153C210.12 116.153 221.118 121.481 229.022 135.4L210.29 147.43C206.165 140.041 201.699 137.12 194.825 137.12C187.779 137.12 183.311 141.588 183.311 147.43C183.311 154.647 187.779 157.57 198.089 162.038L204.103 164.615C224.553 173.38 236.066 182.315 236.066 202.419C236.066 224.073 219.054 235.929 196.199 235.929C173.86 235.929 159.425 225.275 152.38 211.355" fill="black"/>
</g>
<defs>
<clipPath id="clip0_95_37">
<rect width="256" height="256" fill="white"/>
</clipPath>
</defs>
</svg>
